<svg width="369" height="404" viewBox="0 0 369 404" fill="none" xmlns="http://www.w3.org/2000/svg">
<g clip-path="url(#clip0)">
<g opacity="0.4">
<path opacity="0.4" d="M177.552 49.3955V51.2494L184.634 55.7367V53.8829L177.552 49.3955Z" fill="white"/>
<path opacity="0.4" d="M177.552 52.7739V54.6451L184.634 59.1325V57.2786L177.552 52.7739Z" fill="white"/>
<path opacity="0.4" d="M177.552 56.1699V58.0238L184.634 62.5284V60.6573L177.552 56.1699Z" fill="white"/>
<path opacity="0.4" d="M230.961 95.3259V93.4721L187.293 65.7336V67.5875L230.961 95.3259Z" fill="white"/>
<path opacity="0.4" d="M177.552 59.5657V61.4195L184.634 65.9069V64.053L177.552 59.5657Z" fill="white"/>
<path opacity="0.4" d="M177.552 62.9441V64.7979L184.634 69.3026V67.4314L177.552 62.9441Z" fill="white"/>
<path opacity="0.4" d="M230.961 98.7216V96.8678L187.293 69.1294V70.9832L230.961 98.7216Z" fill="white"/>
<path opacity="0.4" d="M177.552 73.1143V74.9681L184.634 79.4554V77.6016L177.552 73.1143Z" fill="white"/>
<path opacity="0.4" d="M177.552 76.4929V78.3468L184.634 82.8514V80.9976L177.552 76.4929Z" fill="white"/>
<path opacity="0.4" d="M177.552 90.0588V91.9127L184.634 96.4V94.5462L177.552 90.0588Z" fill="white"/>
<path opacity="0.4" d="M177.552 93.4375V95.2913L184.634 99.7787V97.9248L177.552 93.4375Z" fill="white"/>
<path opacity="0.4" d="M214.831 117.121L187.293 99.6226V101.476L214.831 118.975V117.121Z" fill="white"/>
<path opacity="0.4" d="M216.295 118.04V119.894L230.961 129.215V127.361L216.295 118.04Z" fill="white"/>
<path opacity="0.4" d="M201.125 105.028L187.293 96.2268V98.0807L201.125 106.882V105.028Z" fill="white"/>
<path opacity="0.4" d="M202.589 105.947V107.8L230.961 125.819V123.965L202.589 105.947Z" fill="white"/>
<path opacity="0.4" d="M227.231 111.439V113.293L230.961 115.649V113.795L227.231 111.439Z" fill="white"/>
<path opacity="0.4" d="M206.916 95.1351L187.293 82.678V84.5318L206.916 96.989V95.1351Z" fill="white"/>
<path opacity="0.4" d="M198.875 62.9269L187.293 55.5808V57.4347L198.875 64.7807V62.9269Z" fill="white"/>
<path opacity="0.4" d="M217.853 74.9856L200.323 63.8452V65.6991L217.853 76.8395V74.9856Z" fill="white"/>
<path opacity="0.4" d="M207.64 71.8842L195.287 64.053V65.9068L207.64 73.738V71.8842Z" fill="white"/>
<path opacity="0.4" d="M220.591 80.1139L209.088 72.8025V74.6563L220.591 81.9678V80.1139Z" fill="white"/>
<path opacity="0.4" d="M222.039 81.0322V82.8861L230.961 88.5516V86.6977L222.039 81.0322Z" fill="white"/>
<path opacity="0.4" d="M189.575 63.7932V65.6471L198.875 71.5551V69.7013L189.575 63.7932Z" fill="white"/>
<path opacity="0.4" d="M227.326 87.7718L200.323 70.6367V72.4906L227.326 89.6257V87.7718Z" fill="white"/>
<path opacity="0.4" d="M211.857 88.1184L194.217 76.926V78.7799L211.857 89.9723V88.1184Z" fill="white"/>
<path opacity="0.4" d="M227.326 97.942L213.321 89.054V90.9078L227.326 99.7959V97.942Z" fill="white"/>
<path opacity="0.4" d="M225.768 107.125L208.364 96.0708V97.9246L225.768 108.978V107.125Z" fill="white"/>
<path opacity="0.4" d="M216.295 104.491V106.345L225.768 112.357V110.503L216.295 104.491Z" fill="white"/>
<path opacity="0.4" d="M190.708 88.2397L187.293 86.074V87.9278L190.708 90.0935V88.2397Z" fill="white"/>
<path opacity="0.4" d="M197.097 92.2939V94.1478L214.831 105.409V103.556L197.097 92.2939Z" fill="white"/>
<path opacity="0.4" d="M195.649 91.3756L192.155 89.158V91.0118L195.649 93.2295V91.3756Z" fill="white"/>
<path opacity="0.4" d="M211.558 104.872L192.155 92.5537V94.4076L211.558 106.726V104.872Z" fill="white"/>
</g>
<g opacity="0.4">
<path opacity="0.4" d="M215.288 18.7117L185.94 0V1.64594L215.288 20.3577V18.7117Z" fill="white"/>
<path opacity="0.4" d="M185.94 4.86859L230.961 33.5426V31.8966L185.94 3.22266V4.86859Z" fill="white"/>
<path opacity="0.4" d="M217.255 19.9246V21.5705L230.961 30.32V28.674L217.255 19.9246Z" fill="white"/>
<path opacity="0.4" d="M215.288 25.001L185.94 6.28931V7.93524L215.288 26.647V25.001Z" fill="white"/>
<path opacity="0.4" d="M185.94 11.175L230.961 39.8317V38.1857L185.94 9.52905V11.175Z" fill="white"/>
<path opacity="0.4" d="M217.255 27.8596L230.961 36.609V34.9631L217.255 26.231V27.8596Z" fill="white"/>
<path opacity="0.4" d="M215.288 35.3963L185.94 16.6846V18.3305L215.288 37.0422V35.3963Z" fill="white"/>
<path opacity="0.4" d="M185.94 21.5705L230.961 50.2272V48.5812L185.94 19.9246V21.5705Z" fill="white"/>
<path opacity="0.4" d="M217.255 38.2551L230.961 47.0045V45.3586L217.255 36.6265V38.2551Z" fill="white"/>
<path opacity="0.4" d="M215.288 41.7029L185.94 22.9912V24.6371L215.288 43.3489V41.7029Z" fill="white"/>
<path opacity="0.4" d="M185.94 27.8598L230.961 56.5338V54.8879L185.94 26.2139V27.8598Z" fill="white"/>
<path opacity="0.4" d="M217.255 44.5617L230.961 53.2938V51.6652L217.255 42.9158V44.5617Z" fill="white"/>
<path opacity="0.4" d="M215.288 52.0982L185.94 33.3865V35.0324L215.288 53.7441V52.0982Z" fill="white"/>
<path opacity="0.4" d="M185.94 38.2551L230.961 66.9291V65.2831L185.94 36.6091V38.2551Z" fill="white"/>
<path opacity="0.4" d="M217.255 54.957L230.961 63.6891V62.0432L217.255 53.311V54.957Z" fill="white"/>
<path opacity="0.4" d="M215.288 58.3875L185.94 39.6758V41.3217L215.288 60.0335V58.3875Z" fill="white"/>
<path opacity="0.4" d="M185.94 44.5444L230.961 73.2184V71.5724L185.94 42.8984V44.5444Z" fill="white"/>
<path opacity="0.4" d="M217.255 61.2463L230.961 69.9957V68.3498L217.255 59.6003V61.2463Z" fill="white"/>
</g>
<path opacity="0.2" d="M136.119 42.2919L114.198 28.4314C113.956 28.2648 113.678 28.1736 113.392 28.1678C113.107 28.1619 112.826 28.2416 112.579 28.3982C112.331 28.5548 112.127 28.7825 111.988 29.0569C111.85 29.3313 111.781 29.6421 111.79 29.9561V58.838C111.778 59.5399 111.939 60.2323 112.254 60.8423C112.57 61.4522 113.03 61.9569 113.584 62.3031L135.505 76.2676C135.751 76.4522 136.039 76.5563 136.336 76.5678C136.633 76.5794 136.928 76.4979 137.185 76.3329C137.442 76.1678 137.651 75.926 137.788 75.6354C137.925 75.3448 137.985 75.0173 137.96 74.6909V45.7571C137.951 45.0536 137.777 44.3646 137.454 43.7573C137.131 43.15 136.671 42.6452 136.119 42.2919Z" fill="white"/>
<path d="M126.394 66.6518L97.6591 48.4078C97.218 48.1254 96.7131 47.9868 96.2032 48.0083C95.6933 48.0297 95.1995 48.2104 94.7794 48.5291L88.4849 52.5314L91.4118 56.9147L92.5133 58.3008V89.6429C92.51 90.5588 92.7266 91.4594 93.1411 92.2535C93.5556 93.0476 94.1534 93.707 94.8738 94.1649L116.385 107.87L116.606 109.186L120.996 115.961L127.747 111.577C128.065 111.367 128.327 111.07 128.509 110.715C128.691 110.359 128.787 109.958 128.785 109.55V71.4337C128.805 70.4753 128.594 69.5282 128.174 68.6885C127.754 67.8488 127.14 67.1461 126.394 66.6518Z" fill="#F4767A"/>
<path d="M119.674 71.0006L90.6253 52.5315C90.3033 52.3367 89.941 52.2372 89.5737 52.2426C89.2064 52.2481 88.8467 52.3583 88.5297 52.5625C88.2126 52.7667 87.949 53.058 87.7647 53.4078C87.5804 53.7577 87.4816 54.1542 87.478 54.5586V92.8829C87.4763 93.8005 87.6953 94.7023 88.1126 95.4965C88.53 96.2908 89.1309 96.9492 89.8542 97.4049L118.935 115.926C119.267 116.135 119.643 116.245 120.025 116.244C120.407 116.243 120.783 116.132 121.114 115.922C121.445 115.711 121.72 115.409 121.912 115.045C122.104 114.681 122.206 114.268 122.208 113.847V75.7305C122.205 74.7656 121.968 73.819 121.523 72.9878C121.078 72.1566 120.44 71.4708 119.674 71.0006Z" fill="#ED5561"/>
<path d="M122.098 113.847V75.7305C122.084 75.102 121.972 74.4808 121.768 73.8939L128.503 69.6145C128.698 70.1674 128.805 70.7538 128.817 71.3471V109.464C128.818 109.872 128.723 110.273 128.541 110.628C128.359 110.983 128.096 111.281 127.779 111.491L121.091 115.822C121.396 115.612 121.648 115.322 121.824 114.976C122 114.631 122.094 114.243 122.098 113.847Z" fill="#D8395A"/>
<path d="M94.3234 70.8793L90.7827 68.627V82.6434L93.1274 84.1334V79.1436L94.1346 79.7847C94.5736 80.1651 95.0822 80.4365 95.6254 80.58C96.1687 80.7236 96.7338 80.736 97.2818 80.6163C98.0214 80.2871 98.3991 79.3689 98.3991 77.8615C98.4287 76.4641 98.066 75.0907 97.3605 73.9286C96.5824 72.6611 95.5413 71.6158 94.3234 70.8793ZM95.5036 77.6883C94.9416 77.7602 94.3764 77.586 93.93 77.2032L93.1589 76.718V72.5599L94.229 73.2356C94.7884 73.5774 95.2679 74.0579 95.6295 74.639C95.9379 75.1841 96.0964 75.816 96.0858 76.4582C96.0544 77.1512 95.8655 77.567 95.5036 77.6883Z" fill="white"/>
<path d="M106.613 84.1855L102.238 81.3961L102.254 75.9038L99.8938 74.4138L99.8623 88.4303L102.207 89.9203L102.223 83.8736L106.613 86.6631L106.597 92.7097L108.942 94.1997L108.974 80.1833L106.629 78.6933L106.613 84.1855Z" fill="white"/>
<path d="M117.739 86.871C116.956 85.6014 115.91 84.5559 114.686 83.8217L111.146 81.5693V95.5858L113.49 97.0758V92.1033L114.497 92.7444C114.939 93.1198 115.448 93.3868 115.991 93.5272C116.534 93.6677 117.098 93.6784 117.645 93.5587C118.384 93.2295 118.762 92.3286 118.762 90.8039C118.794 89.4086 118.437 88.036 117.739 86.871ZM115.803 90.648C115.24 90.7113 114.675 90.5312 114.23 90.1455L113.459 89.6604V85.5023L114.529 86.178C115.091 86.5149 115.572 86.9963 115.929 87.5813C116.24 88.1319 116.398 88.7699 116.386 89.4179C116.417 90.0936 116.228 90.5094 115.803 90.648Z" fill="white"/>
<g opacity="0.4">
<path opacity="0.4" d="M58.5229 68.0725V69.9264L65.6043 74.431V72.5772L58.5229 68.0725Z" fill="white"/>
<path opacity="0.4" d="M58.5229 71.4683V73.3221L65.6043 77.8095V75.9556L58.5229 71.4683Z" fill="white"/>
<path opacity="0.4" d="M58.5229 74.8469V76.7008L65.6043 81.2054V79.3516L58.5229 74.8469Z" fill="white"/>
<path opacity="0.4" d="M111.932 114.003V112.149L68.2637 84.428V86.2818L111.932 114.003Z" fill="white"/>
<path opacity="0.4" d="M58.5229 78.2427V80.0965L65.6043 84.5839V82.73L58.5229 78.2427Z" fill="white"/>
<path opacity="0.4" d="M58.5229 81.6211V83.4923L65.6043 87.9796V86.1258L58.5229 81.6211Z" fill="white"/>
<path opacity="0.4" d="M111.932 117.399V115.545L68.2637 87.8064V89.6602L111.932 117.399Z" fill="white"/>
<path opacity="0.4" d="M58.5229 91.7913V93.6451L65.6043 98.1498V96.2959L58.5229 91.7913Z" fill="white"/>
<path opacity="0.4" d="M58.5229 95.1873V97.0411L65.6043 101.528V99.6746L58.5229 95.1873Z" fill="white"/>
<path opacity="0.4" d="M58.5229 108.736V110.59L65.6043 115.077V113.223L58.5229 108.736Z" fill="white"/>
<path opacity="0.4" d="M58.5229 112.115V113.968L65.6043 118.473V116.619L58.5229 112.115Z" fill="white"/>
<path opacity="0.4" d="M95.8022 135.798L68.2637 118.3V120.153L95.8022 137.652V135.798Z" fill="white"/>
<path opacity="0.4" d="M97.2656 136.717V138.571L111.932 147.892V146.038L97.2656 136.717Z" fill="white"/>
<path opacity="0.4" d="M82.0959 123.705L68.2637 114.921V116.775L82.0959 125.559V123.705Z" fill="white"/>
<path opacity="0.4" d="M83.5435 124.624V126.477L111.932 144.496V142.642L83.5435 124.624Z" fill="white"/>
<path opacity="0.4" d="M108.202 130.116V131.97L111.932 134.343V132.489L108.202 130.116Z" fill="white"/>
<path opacity="0.4" d="M87.8711 113.829L68.2637 101.355V103.209L87.8711 115.683V113.829Z" fill="white"/>
<path opacity="0.4" d="M79.8456 81.6039L68.2637 74.2578V76.1117L79.8456 83.4577V81.6039Z" fill="white"/>
<path opacity="0.4" d="M98.8237 93.6626L81.2935 82.5396V84.3934L98.8237 95.5165V93.6626Z" fill="white"/>
<path opacity="0.4" d="M88.6108 90.5612L76.2578 82.73V84.5838L88.6108 92.415V90.5612Z" fill="white"/>
<path opacity="0.4" d="M101.562 98.7909L90.0586 91.4968V93.3507L101.562 100.645V98.7909Z" fill="white"/>
<path opacity="0.4" d="M103.009 99.7092V101.563L111.932 107.229V105.375L103.009 99.7092Z" fill="white"/>
<path opacity="0.4" d="M70.5454 82.4873V84.3412L79.8456 90.2492V88.3954L70.5454 82.4873Z" fill="white"/>
<path opacity="0.4" d="M108.297 106.449L81.2935 89.3137V91.1676L108.297 108.32V106.449Z" fill="white"/>
<path opacity="0.4" d="M92.8279 106.813L75.1875 95.603V97.4569L92.8279 108.667V106.813Z" fill="white"/>
<path opacity="0.4" d="M108.297 116.619L94.2915 107.731V109.585L108.297 118.473V116.619Z" fill="white"/>
<path opacity="0.4" d="M106.739 125.802L89.3345 114.748V116.602L106.739 127.655V125.802Z" fill="white"/>
<path opacity="0.4" d="M97.2656 123.168V125.022L106.739 131.051V129.198L97.2656 123.168Z" fill="white"/>
<path opacity="0.4" d="M71.6784 106.917L68.2637 104.751V106.605L71.6784 108.771V106.917Z" fill="white"/>
<path opacity="0.4" d="M78.0674 110.988V112.842L95.8022 124.104V122.25L78.0674 110.988Z" fill="white"/>
<path opacity="0.4" d="M76.6194 110.053L73.126 107.835V109.689L76.6194 111.906V110.053Z" fill="white"/>
<path opacity="0.4" d="M92.5288 123.549L73.126 111.231V113.085L92.5288 125.403V123.549Z" fill="white"/>
</g>
<path opacity="0.2" d="M269.547 92.1898L247.626 78.3293C247.383 78.1617 247.103 78.0704 246.816 78.0652C246.53 78.06 246.247 78.1411 245.999 78.2999C245.751 78.4586 245.548 78.6889 245.41 78.9658C245.272 79.2428 245.206 79.5559 245.218 79.8713V108.753C245.208 109.453 245.367 110.143 245.68 110.752C245.992 111.361 246.447 111.867 246.996 112.218L268.917 126.165C269.162 126.354 269.45 126.462 269.748 126.477C270.047 126.491 270.343 126.412 270.602 126.249C270.861 126.085 271.072 125.844 271.212 125.553C271.351 125.262 271.412 124.934 271.388 124.606V95.7069C271.385 94.9949 271.214 94.2959 270.891 93.679C270.569 93.0622 270.105 92.5488 269.547 92.1898Z" fill="white"/>
<path opacity="0.2" d="M299.477 36.3667L277.556 22.5061C277.315 22.3395 277.036 22.2483 276.751 22.2425C276.466 22.2366 276.184 22.3163 275.937 22.4729C275.69 22.6295 275.486 22.8572 275.347 23.1316C275.208 23.406 275.14 23.7168 275.149 24.0308V52.8607C275.135 53.563 275.295 54.2562 275.61 54.8664C275.926 55.4767 276.387 55.9811 276.943 56.3258L298.863 70.2903C299.109 70.4749 299.397 70.579 299.695 70.5905C299.992 70.6021 300.286 70.5206 300.543 70.3556C300.8 70.1906 301.009 69.9487 301.146 69.6581C301.284 69.3675 301.343 69.04 301.318 68.7137V39.9531C301.334 39.228 301.171 38.5118 300.847 37.8804C300.522 37.249 300.049 36.726 299.477 36.3667Z" fill="white"/>
<path opacity="0.2" d="M367.159 187.412L345.238 173.551C344.996 173.385 344.718 173.294 344.432 173.288C344.147 173.282 343.866 173.361 343.619 173.518C343.371 173.675 343.167 173.902 343.028 174.177C342.89 174.451 342.821 174.762 342.83 175.076V203.975C342.817 204.677 342.976 205.371 343.292 205.981C343.608 206.591 344.068 207.096 344.624 207.44L366.529 221.405C366.775 221.595 367.065 221.703 367.365 221.717C367.665 221.731 367.962 221.651 368.222 221.485C368.482 221.32 368.693 221.075 368.831 220.782C368.969 220.488 369.027 220.157 369 219.828V191.068C369.027 190.331 368.869 189.6 368.545 188.955C368.22 188.311 367.741 187.777 367.159 187.412Z" fill="white"/>
<path opacity="0.2" d="M176.357 116.325L154.436 102.464C154.193 102.301 153.915 102.214 153.631 102.211C153.346 102.208 153.067 102.29 152.821 102.448C152.576 102.606 152.374 102.835 152.237 103.109C152.101 103.383 152.034 103.693 152.044 104.006V132.888C152.035 133.587 152.195 134.276 152.508 134.885C152.82 135.494 153.274 136 153.822 136.353L175.743 150.3C175.988 150.489 176.276 150.597 176.574 150.611C176.872 150.626 177.168 150.547 177.428 150.384C177.687 150.22 177.898 149.979 178.037 149.688C178.176 149.397 178.238 149.069 178.213 148.741V119.842C178.211 119.128 178.038 118.427 177.713 117.81C177.387 117.192 176.919 116.68 176.357 116.325Z" fill="white"/>
<path d="M93.851 353.738C88.0286 353.738 89.9327 348.922 89.9327 348.922C81.3092 346.028 77.0604 347.64 77.0604 347.64C75.7663 352.671 75.3026 357.917 75.6914 363.129C75.6914 364.116 76.3208 364.723 77.1706 365.087C81.8128 366.975 86.0458 368.24 94.685 367.322C101.058 366.629 107.793 360.149 106.267 353.461C105.307 349.338 99.7521 353.669 93.851 353.738Z" fill="#933E31"/>
<path d="M91.3492 293.514C89.6497 291.071 86.7227 288.992 81.9074 290.396L29.8833 301.449L31.8346 316.159C34.4458 319.591 37.9159 322.103 41.8133 323.382C45.7108 324.66 49.8636 324.649 53.7553 323.349C61.9272 320.841 69.6907 316.936 76.7617 311.775L74.9677 352.421C80.1602 353.961 85.6922 353.228 90.405 350.377C91.6167 349.563 92.7497 310.407 93.1274 300.358C93.2587 299.144 93.1691 297.914 92.8638 296.739C92.5585 295.564 92.0436 294.468 91.3492 293.514Z" fill="#1C75BC"/>
<path d="M118.825 365.485C112.782 365.485 114.765 360.478 114.765 360.478C105.795 357.481 101.389 359.144 101.389 359.144C100.054 364.368 99.5688 369.812 99.9567 375.222C99.9753 375.707 100.14 376.171 100.425 376.541C100.71 376.912 101.099 377.167 101.53 377.266C106.361 379.242 110.752 380.541 119.721 379.588C126.331 378.878 133.333 372.138 131.744 365.208C130.721 360.911 124.946 365.416 118.825 365.485Z" fill="#9D4D36"/>
<path d="M59.6874 349.32L15.0278 320.889V327.819L59.7031 356.164L59.6874 349.32Z" fill="#BBCEE1"/>
<path d="M55.6274 295.212L15.0278 320.889L59.6874 349.32L100.334 323.609L55.6274 295.212Z" fill="white"/>
<path d="M100.335 323.609L59.688 349.32L59.7037 356.164L100.335 330.279V323.609Z" fill="#A7BCCE"/>
<path d="M116.228 302.939C114.465 300.41 111.507 298.244 106.393 299.7L52.3701 311.169L54.4316 326.433C57.1415 329.997 60.7434 332.605 64.7893 333.933C68.8351 335.261 73.1462 335.249 77.1862 333.9C85.673 331.299 93.7344 327.241 101.074 321.876L99.2485 364.03C104.635 365.638 110.379 364.88 115.268 361.916C116.543 361.067 117.723 320.421 118.101 309.939C118.343 307.425 117.669 304.908 116.228 302.939Z" fill="#2A87C6"/>
<path d="M19.7019 216.9L111.948 157.993C113.862 156.776 116.033 156.136 118.243 156.136C120.452 156.136 122.623 156.776 124.537 157.993L269.846 250.546C270.692 251.083 271.396 251.855 271.885 252.786C272.374 253.717 272.631 254.773 272.631 255.848C272.631 256.923 272.374 257.98 271.885 258.91C271.396 259.841 270.692 260.614 269.846 261.15L179.661 318.792C177.378 320.248 174.786 321.014 172.147 321.014C169.508 321.014 166.917 320.248 164.633 318.792L19.6547 226.446C18.8874 225.966 18.2502 225.269 17.8084 224.427C17.3667 223.586 17.1364 222.63 17.1412 221.658C17.146 220.686 17.3858 219.733 17.8358 218.897C18.2858 218.061 18.9299 217.371 19.7019 216.9Z" fill="#E8EBF5"/>
<path d="M19.7177 226.395L164.696 318.74C166.98 320.196 169.571 320.962 172.21 320.962C174.849 320.962 177.441 320.196 179.724 318.74L269.909 261.098C270.741 260.571 271.434 259.815 271.919 258.903C272.405 257.992 272.667 256.957 272.678 255.9V263.627C272.673 264.683 272.416 265.719 271.932 266.631C271.449 267.544 270.757 268.3 269.925 268.825L179.724 326.433C177.441 327.889 174.849 328.655 172.21 328.655C169.571 328.655 166.98 327.889 164.696 326.433L19.7177 234.087C18.9499 233.605 18.3131 232.906 17.8732 232.063C17.4333 231.219 17.2063 230.261 17.2156 229.288V221.699C17.2181 222.656 17.4511 223.594 17.8906 224.419C18.3302 225.244 18.9607 225.926 19.7177 226.395Z" fill="#A7BCCE"/>
<path d="M19.7177 226.394L164.696 318.74C166.789 320.065 169.144 320.808 171.557 320.906V328.564C169.145 328.458 166.792 327.715 164.696 326.398L19.7177 234.052C18.9499 233.571 18.3131 232.872 17.8732 232.028C17.4333 231.184 17.2063 230.226 17.2156 229.253V221.665C17.2126 222.627 17.4429 223.572 17.8827 224.404C18.3226 225.235 18.956 225.923 19.7177 226.394Z" fill="#BBCEE1"/>
<path d="M87.8555 238.211L103.513 228.248C103.874 228.019 104.284 227.898 104.701 227.898C105.118 227.898 105.528 228.019 105.889 228.248L154.247 259.036C154.403 259.139 154.533 259.285 154.623 259.46C154.713 259.634 154.76 259.832 154.76 260.032C154.76 260.233 154.713 260.43 154.623 260.605C154.533 260.78 154.403 260.926 154.247 261.029L138.967 270.748C138.539 271.021 138.053 271.164 137.559 271.164C137.064 271.164 136.578 271.021 136.15 270.748L87.8555 240.013C87.7155 239.918 87.6 239.786 87.5198 239.628C87.4396 239.47 87.3975 239.292 87.3975 239.112C87.3975 238.931 87.4396 238.753 87.5198 238.595C87.6 238.438 87.7155 238.305 87.8555 238.211Z" fill="#0F4463"/>
<path d="M87.8555 240.012L136.15 270.748C136.578 271.02 137.064 271.164 137.559 271.164C138.053 271.164 138.539 271.02 138.967 270.748L154.247 261.029C154.407 260.927 154.539 260.78 154.63 260.604C154.722 260.427 154.769 260.227 154.766 260.024V262.068C154.76 262.267 154.709 262.461 154.619 262.633C154.528 262.806 154.4 262.951 154.247 263.056L138.967 272.723C138.539 272.996 138.053 273.139 137.559 273.139C137.064 273.139 136.578 272.996 136.15 272.723L87.8555 242.057C87.7114 241.968 87.5925 241.836 87.512 241.677C87.4315 241.518 87.3924 241.338 87.3992 241.156V239.112C87.399 239.292 87.4408 239.47 87.5207 239.628C87.6006 239.785 87.7159 239.918 87.8555 240.012Z" fill="#0B3B56"/>
<path d="M103.34 231.038L105.291 229.79L107.526 231.194L105.574 232.441L103.34 231.038Z" fill="#1F5E77"/>
<path d="M106.11 232.805L108.077 231.54L110.296 232.961L108.344 234.208L106.11 232.805Z" fill="#1F5E77"/>
<path d="M108.895 234.555L110.846 233.308L113.081 234.728L111.13 235.976L108.895 234.555Z" fill="#1F5E77"/>
<path d="M111.665 236.322L113.632 235.075L115.866 236.478L113.899 237.726L111.665 236.322Z" fill="#1F5E77"/>
<path d="M114.45 238.089L116.417 236.824L118.636 238.245L116.684 239.493L114.45 238.089Z" fill="#1F5E77"/>
<path d="M117.235 239.839L119.187 238.592L121.421 240.012L119.47 241.26L117.235 239.839Z" fill="#1F5E77"/>
<path d="M120.005 241.607L121.972 240.359L124.191 241.763L122.239 243.01L120.005 241.607Z" fill="#1F5E77"/>
<path d="M122.79 243.374L124.741 242.109L126.976 243.53L125.025 244.777L122.79 243.374Z" fill="#1F5E77"/>
<path d="M125.56 245.124L127.527 243.876L129.745 245.297L127.794 246.544L125.56 245.124Z" fill="#1F5E77"/>
<path d="M128.345 246.891L130.312 245.643L132.531 247.047L130.58 248.294L128.345 246.891Z" fill="#1F5E77"/>
<path d="M131.13 248.641L133.082 247.393L135.316 248.814L133.365 250.061L131.13 248.641Z" fill="#1F5E77"/>
<path d="M133.9 250.408L135.867 249.161L138.086 250.581L136.134 251.811L133.9 250.408Z" fill="#1F5E77"/>
<path d="M138.636 250.91L140.871 252.331L138.92 253.579L136.685 252.175L138.636 250.91Z" fill="#1F5E77"/>
<path d="M103.025 234.07L100.807 232.649L102.758 231.402L104.993 232.822L103.025 234.07Z" fill="#1F5E77"/>
<path d="M107.762 234.572L105.811 235.82L103.576 234.416L105.543 233.169L107.762 234.572Z" fill="#1F5E77"/>
<path d="M110.547 236.339L108.596 237.587L106.361 236.183L108.313 234.919L110.547 236.339Z" fill="#1F5E77"/>
<path d="M113.317 238.107L111.366 239.354L109.131 237.933L111.098 236.686L113.317 238.107Z" fill="#1F5E77"/>
<path d="M116.102 239.857L114.151 241.104L111.917 239.701L113.868 238.453L116.102 239.857Z" fill="#1F5E77"/>
<path d="M118.888 241.624L116.921 242.871L114.686 241.468L116.653 240.203L118.888 241.624Z" fill="#1F5E77"/>
<path d="M121.657 243.391L119.706 244.639L117.471 243.218L119.438 241.97L121.657 243.391Z" fill="#1F5E77"/>
<path d="M124.443 245.141L122.491 246.388L120.257 244.985L122.208 243.738L124.443 245.141Z" fill="#1F5E77"/>
<path d="M127.212 246.908L125.261 248.155L123.026 246.752L124.993 245.487L127.212 246.908Z" fill="#1F5E77"/>
<path d="M129.997 248.675L128.046 249.923L125.812 248.502L127.763 247.255L129.997 248.675Z" fill="#1F5E77"/>
<path d="M132.783 250.425L130.816 251.673L128.581 250.269L130.548 249.022L132.783 250.425Z" fill="#1F5E77"/>
<path d="M135.552 252.192L133.601 253.44L131.366 252.036L133.317 250.772L135.552 252.192Z" fill="#1F5E77"/>
<path d="M136.103 252.539L138.338 253.942L136.386 255.207L134.152 253.787L136.103 252.539Z" fill="#1F5E77"/>
<path d="M100.492 235.681L98.2573 234.278L100.224 233.03L102.443 234.434L100.492 235.681Z" fill="#1F5E77"/>
<path d="M105.228 236.201L103.277 237.448L101.042 236.028L102.994 234.78L105.228 236.201Z" fill="#1F5E77"/>
<path d="M103.812 237.795L105.78 236.547L108.014 237.951L106.047 239.198L103.812 237.795Z" fill="#1F5E77"/>
<path d="M110.784 239.718L108.832 240.966L106.598 239.562L108.565 238.297L110.784 239.718Z" fill="#1F5E77"/>
<path d="M113.569 241.485L111.617 242.733L109.383 241.312L111.334 240.064L113.569 241.485Z" fill="#1F5E77"/>
<path d="M116.338 243.235L114.387 244.483L112.152 243.079L114.119 241.832L116.338 243.235Z" fill="#1F5E77"/>
<path d="M119.124 245.002L117.173 246.25L114.938 244.846L116.889 243.582L119.124 245.002Z" fill="#1F5E77"/>
<path d="M121.909 246.77L119.942 248.017L117.707 246.596L119.674 245.349L121.909 246.77Z" fill="#1F5E77"/>
<path d="M124.679 248.519L122.727 249.767L120.493 248.363L122.46 247.116L124.679 248.519Z" fill="#1F5E77"/>
<path d="M127.464 250.287L125.512 251.534L123.278 250.131L125.229 248.866L127.464 250.287Z" fill="#1F5E77"/>
<path d="M130.234 252.054L128.282 253.301L126.048 251.881L128.015 250.633L130.234 252.054Z" fill="#1F5E77"/>
<path d="M128.833 253.648L130.784 252.4L133.019 253.804L131.068 255.051L128.833 253.648Z" fill="#1F5E77"/>
<path d="M133.57 254.15L135.804 255.571L133.837 256.818L131.603 255.398L133.57 254.15Z" fill="#1F5E77"/>
<path d="M97.9582 237.31L95.7236 235.889L97.6907 234.642L99.9095 236.062L97.9582 237.31Z" fill="#1F5E77"/>
<path d="M98.5093 237.656L100.461 236.391L102.695 237.812L100.744 239.059L98.5093 237.656Z" fill="#1F5E77"/>
<path d="M101.279 239.406L103.246 238.159L105.465 239.579L103.513 240.827L101.279 239.406Z" fill="#1F5E77"/>
<path d="M104.064 241.173L106.031 239.926L108.25 241.329L106.299 242.577L104.064 241.173Z" fill="#1F5E77"/>
<path d="M106.833 242.941L108.801 241.676L111.035 243.096L109.068 244.344L106.833 242.941Z" fill="#1F5E77"/>
<path d="M109.619 244.691L111.586 243.443L113.805 244.864L111.854 246.111L109.619 244.691Z" fill="#1F5E77"/>
<path d="M112.404 246.458L114.356 245.21L116.59 246.614L114.639 247.861L112.404 246.458Z" fill="#1F5E77"/>
<path d="M115.174 248.225L117.141 246.96L119.36 248.381L117.408 249.628L115.174 248.225Z" fill="#1F5E77"/>
<path d="M117.959 249.975L119.91 248.727L122.145 250.148L120.194 251.395L117.959 249.975Z" fill="#1F5E77"/>
<path d="M120.729 251.742L122.696 250.495L124.931 251.898L122.964 253.145L120.729 251.742Z" fill="#1F5E77"/>
<path d="M123.514 253.509L125.481 252.244L127.7 253.665L125.749 254.913L123.514 253.509Z" fill="#1F5E77"/>
<path d="M126.299 255.259L128.251 254.012L130.485 255.432L128.534 256.68L126.299 255.259Z" fill="#1F5E77"/>
<path d="M131.036 255.779L133.255 257.182L131.303 258.43L129.069 257.026L131.036 255.779Z" fill="#1F5E77"/>
<path d="M95.425 238.921L93.1904 237.518L95.1575 236.253L97.3763 237.674L95.425 238.921Z" fill="#1F5E77"/>
<path d="M95.96 239.267L97.927 238.02L100.162 239.423L98.2103 240.671L95.96 239.267Z" fill="#1F5E77"/>
<path d="M98.7451 241.035L100.712 239.787L102.931 241.191L100.98 242.438L98.7451 241.035Z" fill="#1F5E77"/>
<path d="M101.53 242.785L103.482 241.537L105.716 242.958L103.765 244.205L101.53 242.785Z" fill="#1F5E77"/>
<path d="M104.3 244.552L106.267 243.304L108.486 244.725L106.534 245.973L104.3 244.552Z" fill="#1F5E77"/>
<path d="M107.085 246.319L109.052 245.054L111.271 246.475L109.32 247.722L107.085 246.319Z" fill="#1F5E77"/>
<path d="M109.855 248.069L111.822 246.822L114.057 248.242L112.09 249.49L109.855 248.069Z" fill="#1F5E77"/>
<path d="M112.64 249.836L114.607 248.589L116.826 249.992L114.875 251.239L112.64 249.836Z" fill="#1F5E77"/>
<path d="M115.426 251.603L117.377 250.339L119.612 251.759L117.66 253.007L115.426 251.603Z" fill="#1F5E77"/>
<path d="M118.195 253.353L120.162 252.106L122.381 253.527L120.43 254.774L118.195 253.353Z" fill="#1F5E77"/>
<path d="M120.98 255.12L122.932 253.873L125.166 255.276L123.215 256.524L120.98 255.12Z" fill="#1F5E77"/>
<path d="M123.75 256.888L125.717 255.623L127.952 257.044L125.985 258.291L123.75 256.888Z" fill="#1F5E77"/>
<path d="M128.503 257.39L130.721 258.811L128.77 260.058L126.536 258.638L128.503 257.39Z" fill="#1F5E77"/>
<path d="M92.608 237.882L94.8426 239.285L92.8913 240.532L90.6567 239.129L92.608 237.882Z" fill="#1F5E77"/>
<path d="M97.6121 241.052L95.6608 242.3L93.4263 240.879L95.3933 239.631L97.6121 241.052Z" fill="#1F5E77"/>
<path d="M100.398 242.819L98.4465 244.067L96.2119 242.646L98.1632 241.398L100.398 242.819Z" fill="#1F5E77"/>
<path d="M103.183 244.569L101.232 245.817L98.9971 244.413L100.948 243.148L103.183 244.569Z" fill="#1F5E77"/>
<path d="M105.952 246.336L104.001 247.584L101.767 246.163L103.734 244.916L105.952 246.336Z" fill="#1F5E77"/>
<path d="M108.738 248.086L106.786 249.334L104.552 247.93L106.503 246.683L108.738 248.086Z" fill="#1F5E77"/>
<path d="M109.288 248.45L112.058 250.2H112.074L112.609 250.547L114.843 251.967L115.976 252.678L117.629 253.717L119.375 254.843L122.633 256.905L120.681 258.153L117.282 255.987L115.662 254.982L113.978 253.908L112.876 253.215H112.892L110.689 251.829L110.107 251.448L107.321 249.698L109.288 248.45Z" fill="#1F5E77"/>
<path d="M125.402 258.655L123.451 259.902L121.216 258.499L123.183 257.251L125.402 258.655Z" fill="#1F5E77"/>
<path d="M128.188 260.422L126.236 261.67L124.002 260.266L125.953 259.001L128.188 260.422Z" fill="#1F5E77"/>
<path d="M142.24 255.692L144.192 254.445L146.426 255.848L144.475 257.096L142.24 255.692Z" fill="#1F5E77"/>
<path d="M145.025 257.46L146.977 256.195L149.211 257.616L147.244 258.863L145.025 257.46Z" fill="#1F5E77"/>
<path d="M147.795 259.209L149.762 257.962L151.981 259.383L150.029 260.63L147.795 259.209Z" fill="#1F5E77"/>
<path d="M143.892 257.477L141.941 258.724L139.707 257.304L141.658 256.056L143.892 257.477Z" fill="#1F5E77"/>
<path d="M146.662 259.227L144.711 260.474L142.476 259.071L144.443 257.823L146.662 259.227Z" fill="#1F5E77"/>
<path d="M149.448 260.994L147.496 262.241L145.262 260.838L147.213 259.573L149.448 260.994Z" fill="#1F5E77"/>
<path d="M141.359 259.088L139.392 260.336L137.173 258.932L139.124 257.667L141.359 259.088Z" fill="#1F5E77"/>
<path d="M144.129 260.855L142.177 262.103L139.943 260.682L141.91 259.435L144.129 260.855Z" fill="#1F5E77"/>
<path d="M146.914 262.605L144.963 263.853L142.728 262.449L144.679 261.202L146.914 262.605Z" fill="#1F5E77"/>
<path d="M134.624 260.543L136.591 259.296L138.825 260.699L136.858 261.947L134.624 260.543Z" fill="#1F5E77"/>
<path d="M137.409 262.311L139.36 261.046L141.595 262.467L139.644 263.714L137.409 262.311Z" fill="#1F5E77"/>
<path d="M140.179 264.06L142.146 262.813L144.38 264.234L142.413 265.481L140.179 264.06Z" fill="#1F5E77"/>
<path d="M132.09 262.155L134.057 260.907L136.276 262.328L134.325 263.575L132.09 262.155Z" fill="#1F5E77"/>
<path d="M134.875 263.922L136.827 262.675L139.061 264.078L137.11 265.325L134.875 263.922Z" fill="#1F5E77"/>
<path d="M137.646 265.689L139.613 264.424L141.847 265.845L139.88 267.092L137.646 265.689Z" fill="#1F5E77"/>
<path d="M133.742 263.939L131.791 265.187L129.557 263.783L131.524 262.536L133.742 263.939Z" fill="#1F5E77"/>
<path d="M136.528 265.707L134.577 266.954L132.342 265.533L134.294 264.286L136.528 265.707Z" fill="#1F5E77"/>
<path d="M122.586 221.682L137.992 211.841C138.311 211.632 138.675 211.522 139.046 211.522C139.417 211.522 139.781 211.632 140.1 211.841L176.64 235.075C176.773 235.167 176.883 235.294 176.959 235.446C177.036 235.598 177.075 235.768 177.075 235.941C177.075 236.114 177.036 236.285 176.959 236.436C176.883 236.588 176.773 236.715 176.64 236.807L161.58 246.423C161.202 246.67 160.769 246.8 160.329 246.8C159.889 246.8 159.457 246.67 159.078 246.423L122.586 223.241C122.465 223.159 122.366 223.044 122.297 222.908C122.229 222.771 122.192 222.618 122.192 222.462C122.192 222.306 122.229 222.152 122.297 222.016C122.366 221.879 122.465 221.764 122.586 221.682Z" fill="#1F5E77"/>
<path d="M122.586 223.259L159.078 246.44C159.457 246.687 159.889 246.818 160.329 246.818C160.77 246.818 161.202 246.687 161.58 246.44L176.64 236.825C176.778 236.733 176.893 236.603 176.973 236.448C177.053 236.294 177.095 236.119 177.096 235.941V238.072C177.096 238.248 177.053 238.42 176.973 238.572C176.893 238.724 176.778 238.851 176.64 238.938L161.58 248.468C161.2 248.709 160.769 248.837 160.329 248.837C159.89 248.837 159.459 248.709 159.078 248.468L122.586 225.268C122.46 225.187 122.357 225.07 122.285 224.93C122.213 224.79 122.176 224.632 122.177 224.471V222.479C122.178 222.637 122.217 222.791 122.289 222.928C122.36 223.064 122.463 223.178 122.586 223.259Z" fill="#07304B"/>
<path d="M122.586 223.259L159.078 246.44C159.423 246.663 159.812 246.788 160.211 246.804V248.866C159.814 248.855 159.424 248.736 159.078 248.519L122.586 225.32C122.46 225.239 122.357 225.122 122.285 224.982C122.213 224.842 122.176 224.684 122.177 224.523V222.479C122.178 222.637 122.217 222.791 122.289 222.928C122.36 223.064 122.463 223.178 122.586 223.259Z" fill="#0B3B56"/>
<path d="M162.54 223.224L134.152 205.119V220.608L162.54 238.696V223.224Z" fill="#0F4463"/>
<path d="M138.102 202.624L134.152 205.119L162.54 223.224L166.506 220.712L138.102 202.624Z" fill="#07304B"/>
<path d="M166.506 220.712L162.54 223.224V238.696L166.506 236.166V220.712Z" fill="#07304B"/>
<path d="M105.433 126.287L191.762 181.417V251.344L105.433 196.005V126.287Z" fill="url(#paint0_linear)"/>
<path d="M191.762 181.417L194.626 179.494V249.438L191.762 251.343V181.417Z" fill="#07304B"/>
<path d="M105.433 126.287L108.376 124.416L194.626 179.494L191.762 181.417L105.433 126.287Z" fill="#1F5E77"/>
<path d="M105.433 126.304V196.023L191.762 251.361V181.417L105.433 126.304ZM189.764 247.445L107.479 194.758V130.202L189.764 182.717V247.445Z" fill="#0B3B56"/>
<path d="M73.4727 212.638C72.5757 222.635 65.8878 230.085 58.5232 229.288C51.1586 228.491 45.9342 219.742 46.8312 209.745C47.7281 199.748 54.416 192.315 61.7649 193.112C69.1137 193.909 74.3696 202.658 73.4727 212.638Z" fill="#FED4BD"/>
<path d="M84.4726 235.924C84.4726 235.924 87.6198 236.773 88.7843 236.894C89.9488 237.015 94.1032 237.985 95.8184 237.414C97.5337 236.842 94.2448 235.577 93.5052 234.936C92.7656 234.295 92.7499 232.649 94.4809 232.077C96.2119 231.506 100.146 231.766 102.223 231.436C104.3 231.107 100.162 224.194 96.7784 223.553C93.635 222.858 90.3709 223.347 87.5097 224.939C84.6299 226.498 83.0563 229.149 81.7188 229.652L84.4726 235.924Z" fill="#F4C5A2"/>
<path d="M84.8501 226.499L62.9609 232.545L61.8594 247.844L87.6984 238.072C88.2334 232.684 84.8501 226.499 84.8501 226.499Z" fill="#ED5561"/>
<path d="M30.8274 232.978C30.8274 232.978 24.769 241.364 30.8274 252.937C30.8274 252.937 35.0605 259.383 46.6739 253.059L30.8274 232.978Z" fill="#ED5561"/>
<path d="M48.8138 223.172C48.8138 223.172 58.2556 222.462 65.6359 228.144C66.0499 229.278 66.7554 230.253 67.6659 230.951C69.1451 232.043 76.4939 235.283 76.4939 235.283C76.4939 235.283 73.2523 282.703 76.9661 305.798C76.9661 305.798 61.0252 319.503 36.0517 305.798C36.0517 305.798 32.4166 247.567 30.8115 233.03C30.8273 232.978 35.0288 227.33 48.8138 223.172Z" fill="#DE495A"/>
<path d="M44.6596 301.449L0 273.018L15.0281 320.958L59.7034 349.32L44.6596 301.449Z" fill="#BBCEE1"/>
<path d="M4.92546 269.865L0 273.018L44.6596 301.449L49.648 298.262L4.92546 269.865Z" fill="white"/>
<path d="M49.6481 298.261L44.6597 301.449L59.7035 349.32L64.7392 346.132L49.6481 298.261Z" fill="#A7BCCE"/>
<path d="M113.899 256.94C113.899 256.94 116.338 254.237 117.266 253.475C118.195 252.712 121.468 249.299 123.309 248.849C125.15 248.398 122.019 251.915 121.625 253.007C121.232 254.098 123.514 252.123 125.229 251.413C127.143 250.72 129.218 250.8 131.083 251.638C135.316 253.371 135.111 262.605 131.649 261.514C125.969 259.781 123.419 264.667 120.02 265.707C118.444 266.156 116.84 266.48 115.221 266.677L113.899 256.94Z" fill="#F4C5A2"/>
<path d="M76.4627 235.283L94.9214 262.224L114.12 255.987C114.12 255.987 118.243 261.704 116.905 267.751L91.2863 278.735L70.4672 253.527C70.4672 253.527 63.5275 237.518 76.4627 235.283Z" fill="#ED5561"/>
<path d="M66.2027 184.57C66.2027 184.57 67.6189 188.33 60.8209 189.352C54.0228 190.374 45.6353 194.082 43.4165 201.983C42.0003 207.024 43.6368 212.378 45.9501 216.848C46.7244 218.38 47.6252 219.83 48.641 221.179C52.08 221.885 55.6347 221.215 58.665 219.291C60.9807 217.406 62.8353 214.917 64.0625 212.049C64.0625 212.049 68.1067 213.903 69.3656 210.195C70.2941 207.458 73.2211 206.73 74.8104 205.292C74.8891 205.292 83.9847 188.78 66.2027 184.57Z" fill="#9D4D36"/>
<path d="M319.682 328.044L290.083 309.142V321.339L319.682 340.189V328.044Z" fill="#BBCEE1"/>
<path d="M320.674 289.789L290.083 309.142L319.682 328.044L350.305 308.674L320.674 289.789Z" fill="white"/>
<path d="M350.305 308.674L319.683 328.044V340.19L350.305 320.681V308.674Z" fill="#A7BCCE"/>
<path d="M319.682 308.12L290.083 289.2V301.397L319.682 320.248V308.12Z" fill="#BBCEE1"/>
<path d="M320.674 269.847L290.083 289.2L319.682 308.12L350.305 288.732L320.674 269.847Z" fill="white"/>
<path d="M350.305 288.732L319.683 308.12V320.248L350.305 300.739V288.732Z" fill="#A7BCCE"/>
<path d="M269.625 359.958L240.041 341.039V353.236L269.641 372.086L269.625 359.958Z" fill="#BBCEE1"/>
<path d="M270.632 321.686L240.041 341.039L269.625 359.958L300.264 340.571L270.632 321.686Z" fill="white"/>
<path d="M300.264 340.571L269.625 359.958L269.641 372.086L300.264 352.577V340.571Z" fill="#A7BCCE"/>
<path d="M269.625 340.016L240.041 321.114V333.294L269.641 352.162L269.625 340.016Z" fill="#BBCEE1"/>
<path d="M270.632 301.761L240.041 321.114L269.625 340.016L300.264 320.646L270.632 301.761Z" fill="white"/>
<path d="M300.264 320.646L269.625 340.016L269.641 352.162L300.264 332.653V320.646Z" fill="#A7BCCE"/>
<path d="M219.584 391.855L190 372.952V385.132L219.584 404V391.855Z" fill="#BBCEE1"/>
<path d="M220.591 353.6L190 372.952L219.584 391.855L250.223 372.485L220.591 353.6Z" fill="white"/>
<path d="M250.223 372.485L219.584 391.855V404L250.223 384.491V372.485Z" fill="#A7BCCE"/>
<path d="M219.584 371.913L190 353.01V365.208L219.584 384.058V371.913Z" fill="#BBCEE1"/>
<path d="M220.591 333.658L190 353.01L219.584 371.913L250.223 352.543L220.591 333.658Z" fill="white"/>
<path d="M250.223 352.543L219.584 371.913V384.058L250.223 364.549V352.543Z" fill="#A7BCCE"/>
<path d="M228.821 359.993L226.964 358.797C225.565 359.397 224.099 359.787 222.605 359.958V361.691H218.089V359.958C216.596 359.783 215.13 359.393 213.73 358.797L211.889 359.993L208.741 357.948L210.598 356.77C209.776 356.042 209.146 355.085 208.773 353.998H206.161V351.105H208.647C209.009 350.021 209.629 349.064 210.441 348.333L208.647 347.224L211.794 345.179L213.651 346.358C215.049 345.774 216.508 345.39 217.994 345.214V343.481H222.511V345.214C224.007 345.39 225.477 345.774 226.885 346.358L228.726 345.179L231.874 347.224L230.017 348.402C230.842 349.127 231.473 350.085 231.842 351.174H234.454V354.05H231.937C231.574 355.134 230.955 356.091 230.143 356.822L232 358L228.821 359.993ZM216.137 355.228C217.437 355.954 218.874 356.333 220.331 356.333C221.788 356.333 223.225 355.954 224.525 355.228C226.822 353.738 226.807 351.347 224.525 349.875C223.228 349.149 221.794 348.77 220.339 348.77C218.884 348.77 217.45 349.149 216.153 349.875C213.84 351.347 213.856 353.738 216.153 355.228" fill="#1C75BC"/>
<path d="M272.883 312.278L275.763 319.035L278.642 325.809L268.02 323.99L257.398 322.188L265.141 317.233L272.883 312.278Z" fill="#EF4136"/>
<path d="M309.092 287.294C307.518 286.272 308.211 284.799 311.264 282.842C312.514 282.031 313.874 281.446 315.292 281.109C316.261 280.815 317.294 280.913 318.203 281.386C318.515 281.571 318.78 281.839 318.974 282.166C319.127 282.443 319.249 282.74 319.336 283.049L322.137 282.287C321.977 281.791 321.725 281.337 321.398 280.953C321.053 280.547 320.649 280.207 320.202 279.948C318.614 278.988 316.787 278.617 314.993 278.891C312.766 279.203 310.622 280.023 308.699 281.3C307.075 282.109 305.749 283.502 304.938 285.25C304.56 286.515 305.111 287.606 306.511 288.559C307.478 289.178 308.549 289.573 309.659 289.72L311.83 288.334C310.869 288.166 309.943 287.814 309.092 287.294Z" fill="#91A6B7"/>
<path d="M322.389 291.019C322.656 290.291 322.656 289.478 322.389 288.75C322.189 288.255 322.113 287.711 322.169 287.173C322.223 286.956 322.321 286.755 322.454 286.584C322.587 286.413 322.753 286.277 322.94 286.185C323.361 285.907 323.835 285.741 324.325 285.7C324.78 285.675 325.232 285.789 325.631 286.029C325.951 286.23 326.234 286.494 326.465 286.809C326.635 287.086 326.787 287.376 326.921 287.675L329.691 286.948C329.256 285.916 328.527 285.071 327.614 284.54C326.544 283.86 325.323 283.524 324.089 283.569C322.814 283.578 321.565 283.961 320.469 284.678C319.974 284.976 319.528 285.362 319.148 285.822C318.894 286.171 318.716 286.58 318.628 287.017C318.579 287.539 318.638 288.066 318.801 288.559C319.009 289.106 319.074 289.706 318.99 290.292C318.942 290.518 318.848 290.73 318.714 290.91C318.581 291.09 318.411 291.234 318.219 291.331C317.795 291.608 317.312 291.757 316.819 291.764C316.305 291.779 315.798 291.635 315.355 291.348C314.537 290.812 313.914 289.979 313.593 288.992L311.185 290.534C311.72 291.529 312.508 292.33 313.451 292.838C314.562 293.574 315.837 293.952 317.133 293.93C318.457 293.893 319.748 293.475 320.879 292.717C321.526 292.332 322.053 291.74 322.389 291.019Z" fill="#91A6B7"/>
<path d="M335.214 289.408C334.144 288.728 332.924 288.387 331.689 288.421C330.415 288.449 329.169 288.836 328.07 289.547C327.576 289.839 327.134 290.227 326.764 290.69C326.498 291.031 326.319 291.444 326.245 291.886C326.186 292.402 326.246 292.926 326.418 293.41C326.614 293.961 326.679 294.557 326.607 295.143C326.547 295.364 326.448 295.57 326.316 295.748C326.184 295.927 326.02 296.074 325.835 296.182C325.403 296.454 324.917 296.603 324.419 296.616C323.911 296.63 323.409 296.486 322.971 296.2C322.15 295.667 321.526 294.833 321.209 293.843L318.801 295.385C319.325 296.384 320.109 297.187 321.052 297.69C322.166 298.415 323.439 298.792 324.734 298.781C326.062 298.744 327.358 298.326 328.495 297.568C329.155 297.21 329.703 296.643 330.068 295.94C330.343 295.207 330.343 294.385 330.068 293.653C329.876 293.162 329.8 292.625 329.848 292.094C329.908 291.875 330.009 291.672 330.144 291.499C330.28 291.326 330.447 291.186 330.635 291.089C331.057 290.816 331.531 290.656 332.02 290.621C332.475 290.587 332.929 290.702 333.326 290.95C333.645 291.145 333.923 291.41 334.144 291.73C334.32 292.003 334.472 292.293 334.6 292.596L337.37 291.851C336.921 290.793 336.162 289.933 335.214 289.408Z" fill="#91A6B7"/>
<path d="M319.022 180.586L290.271 162.342C289.833 162.059 289.331 161.92 288.823 161.941C288.316 161.963 287.824 162.144 287.407 162.463L281.113 166.465L284.055 170.849L285.141 172.235V203.577C285.14 204.494 285.359 205.396 285.776 206.19C286.193 206.985 286.794 207.643 287.517 208.099L309.029 221.803L309.249 223.12L313.64 229.894L320.391 225.511C320.704 225.298 320.963 224.999 321.142 224.644C321.321 224.289 321.415 223.89 321.413 223.484V185.367C321.433 184.409 321.222 183.462 320.802 182.622C320.382 181.783 319.768 181.08 319.022 180.586Z" fill="#79FF68"/>
<path d="M312.302 184.934L283.222 166.465C282.9 166.27 282.537 166.171 282.17 166.176C281.803 166.182 281.443 166.292 281.126 166.496C280.809 166.7 280.545 166.992 280.361 167.341C280.177 167.691 280.078 168.088 280.074 168.492V206.886C280.07 207.806 280.287 208.712 280.705 209.509C281.122 210.307 281.725 210.968 282.45 211.425L311.515 229.929C311.848 230.137 312.225 230.245 312.608 230.244C312.99 230.243 313.366 230.132 313.698 229.922C314.03 229.712 314.307 229.411 314.501 229.047C314.695 228.684 314.799 228.271 314.804 227.85V189.56C314.788 188.616 314.548 187.694 314.109 186.883C313.671 186.071 313.048 185.4 312.302 184.934Z" fill="#50E85E"/>
<path d="M314.757 227.781V189.56C314.744 188.93 314.626 188.308 314.411 187.724L321.162 183.444C321.35 184 321.457 184.585 321.476 185.177V223.293C321.478 223.699 321.384 224.099 321.205 224.454C321.026 224.809 320.767 225.107 320.454 225.321L313.766 229.652C314.055 229.45 314.296 229.175 314.468 228.849C314.641 228.524 314.74 228.157 314.757 227.781Z" fill="#3CC743"/>
<path d="M351.848 104.37L323.098 86.1086C322.655 85.8301 322.151 85.6939 321.642 85.7153C321.133 85.7368 320.639 85.915 320.218 86.2299L313.923 90.2494L316.866 94.6155L317.952 96.0016V127.344C317.947 128.264 318.165 129.17 318.582 129.967C319 130.765 319.602 131.426 320.328 131.883L341.839 145.57L342.06 146.887L346.45 153.661L353.201 149.295C353.517 149.084 353.777 148.787 353.957 148.431C354.136 148.076 354.228 147.675 354.224 147.268V109.152C354.251 108.194 354.046 107.245 353.628 106.404C353.21 105.563 352.595 104.861 351.848 104.37Z" fill="#9263C1"/>
<path d="M345.191 108.719L316.11 90.2322C315.786 90.042 315.424 89.9467 315.057 89.9554C314.69 89.9641 314.331 90.0764 314.015 90.2817C313.699 90.487 313.436 90.7783 313.252 91.1277C313.068 91.477 312.968 91.8727 312.963 92.2766V130.653C312.961 131.571 313.18 132.472 313.597 133.267C314.015 134.061 314.616 134.719 315.339 135.175L344.404 153.679C344.736 153.888 345.112 153.997 345.494 153.996C345.876 153.996 346.252 153.885 346.583 153.674C346.914 153.464 347.189 153.162 347.381 152.798C347.573 152.434 347.675 152.021 347.677 151.6V113.327C347.666 112.387 347.43 111.466 346.994 110.657C346.557 109.848 345.936 109.18 345.191 108.719Z" fill="#8444B2"/>
<path d="M347.63 151.548V113.327C347.624 112.698 347.512 112.075 347.3 111.491L354.051 107.211C354.233 107.768 354.334 108.352 354.35 108.944V147.06C354.354 147.467 354.262 147.868 354.082 148.223C353.903 148.579 353.643 148.876 353.327 149.087L346.623 153.419C346.914 153.218 347.158 152.943 347.333 152.618C347.508 152.292 347.61 151.925 347.63 151.548Z" fill="#7231A3"/>
<path d="M255.856 104.924L227.059 86.6631C226.616 86.3846 226.112 86.2483 225.603 86.2698C225.094 86.2912 224.6 86.4695 224.179 86.7843L217.884 90.7866L220.827 95.17L221.913 96.556V127.898C221.908 128.819 222.126 129.724 222.543 130.522C222.961 131.319 223.563 131.98 224.289 132.437L245.8 146.125L246.021 147.442L250.411 154.216L257.162 149.85C257.476 149.636 257.735 149.338 257.914 148.983C258.093 148.628 258.186 148.229 258.185 147.823V109.706C258.217 108.753 258.019 107.808 257.609 106.968C257.2 106.127 256.595 105.422 255.856 104.924Z" fill="#FFA8E1"/>
<path d="M249.09 109.273L220.009 90.8039C219.686 90.6084 219.322 90.5089 218.954 90.5152C218.585 90.5214 218.224 90.6331 217.907 90.8394C217.589 91.0456 217.326 91.3393 217.143 91.6915C216.96 92.0438 216.863 92.4424 216.862 92.8483V131.155C216.857 132.076 217.075 132.981 217.492 133.779C217.91 134.576 218.512 135.237 219.238 135.695L248.303 154.198C248.635 154.407 249.011 154.517 249.393 154.516C249.775 154.515 250.151 154.404 250.482 154.194C250.813 153.984 251.088 153.681 251.28 153.317C251.472 152.953 251.574 152.54 251.576 152.119V114.003C251.584 113.042 251.358 112.096 250.92 111.264C250.483 110.432 249.851 109.744 249.09 109.273Z" fill="#FF7AD2"/>
<path d="M251.529 152.102V113.986C251.522 113.356 251.41 112.734 251.198 112.149L257.949 107.87C258.131 108.426 258.232 109.011 258.248 109.602V147.719C258.249 148.125 258.156 148.524 257.977 148.879C257.798 149.234 257.539 149.532 257.225 149.746L250.521 154.077C250.826 153.866 251.077 153.575 251.253 153.23C251.429 152.885 251.524 152.498 251.529 152.102Z" fill="#DE64C6"/>
<path d="M192.911 31.013L164.129 12.8384C163.687 12.5599 163.183 12.4236 162.674 12.4451C162.165 12.4665 161.671 12.6448 161.25 12.9597L154.955 16.9792L157.882 21.3453L158.984 22.7313V54.0735C158.977 54.9923 159.193 55.8965 159.607 56.6939C160.022 57.4913 160.621 58.1534 161.344 58.6128L182.855 72.3001L183.076 73.6168L187.466 80.3912L194.217 76.0251C194.537 75.8177 194.801 75.5211 194.984 75.1652C195.166 74.8092 195.26 74.4066 195.256 73.998V35.8815C195.299 34.9128 195.104 33.9491 194.691 33.0923C194.279 32.2354 193.664 31.517 192.911 31.013Z" fill="#FCEC32"/>
<path d="M186.144 35.3617L157.064 16.8752C156.74 16.6851 156.377 16.5898 156.01 16.5984C155.644 16.6071 155.285 16.7195 154.969 16.9248C154.653 17.1301 154.39 17.4214 154.206 17.7707C154.022 18.1201 153.922 18.5157 153.917 18.9197V57.2441C153.915 58.1616 154.134 59.0634 154.551 59.8576C154.968 60.6519 155.569 61.3103 156.293 61.7661L185.373 80.2699C185.705 80.4788 186.081 80.5883 186.463 80.5875C186.846 80.5867 187.221 80.4756 187.552 80.2653C187.883 80.0549 188.159 79.7527 188.351 79.3887C188.543 79.0247 188.645 78.6117 188.646 78.1908V40.0743C188.652 39.1139 188.422 38.1697 187.982 37.3406C187.542 36.5114 186.907 35.8279 186.144 35.3617Z" fill="#F5D012"/>
<path d="M188.599 78.1907V40.0742C188.586 39.4457 188.474 38.8245 188.269 38.2377L195.004 33.9583C195.198 34.5118 195.304 35.0978 195.319 35.6908V73.8073C195.323 74.2159 195.229 74.6185 195.047 74.9745C194.865 75.3304 194.6 75.627 194.28 75.8344L187.592 80.1658C187.894 79.9528 188.144 79.6612 188.32 79.3167C188.496 78.9723 188.592 78.5856 188.599 78.1907Z" fill="#EAA10C"/>
<path d="M243.346 116.792C241.827 113.755 239.628 111.196 236.957 109.36C236.038 108.629 234.961 108.179 233.833 108.055C232.706 107.93 231.569 108.135 230.536 108.649C227.389 110.624 227.027 116.567 229.466 122.51L221.598 127.465L223.896 131.848L231.764 126.893C233.126 129.035 234.878 130.84 236.91 132.195C237.824 132.92 238.896 133.368 240.018 133.493C241.139 133.617 242.271 133.415 243.298 132.905C246.855 130.757 246.871 123.515 243.346 116.792ZM241.001 128.591C240.343 128.917 239.619 129.047 238.901 128.968C238.183 128.888 237.496 128.603 236.91 128.141C235.197 126.973 233.787 125.338 232.818 123.393C230.568 119.097 230.568 114.453 232.818 112.998C233.476 112.672 234.2 112.543 234.918 112.622C235.636 112.701 236.323 112.986 236.91 113.448C238.616 114.633 240.023 116.271 241.001 118.213C243.267 122.527 243.267 127.188 241.001 128.591Z" fill="white"/>
<path d="M163.012 38.6536C163.497 38.9607 163.942 39.3396 164.334 39.7798C164.774 40.2649 165.215 40.7673 165.656 41.3218L166.474 39.26C165.493 37.9808 164.329 36.8864 163.028 36.0201C162.156 35.3866 161.129 35.0603 160.085 35.0845C159.676 35.1255 159.284 35.2807 158.945 35.5354C158.607 35.7901 158.333 36.1358 158.149 36.5399C157.654 37.6786 157.422 38.9343 157.473 40.1956C157.426 42.4626 157.891 44.7069 158.826 46.7274C159.718 48.6044 161.084 50.157 162.76 51.1974C163.743 51.8817 164.849 52.3248 166.002 52.4968V49.846C164.948 49.6668 163.931 49.2857 162.996 48.7198C161.029 47.4724 160.038 45.2547 160.053 41.7896C159.932 40.6413 160.208 39.4849 160.824 38.5496C161.438 38.0299 162.099 38.0472 163.012 38.6536Z" fill="#8444B2"/>
<path d="M172.658 44.8042L170.896 43.678L170.88 47.6629L167.764 45.6704V47.9054L170.88 49.8979L170.864 53.8308L172.627 54.9397L172.642 51.0241L175.758 52.9992L175.774 50.7642L172.642 48.7717L172.658 44.8042Z" fill="#8444B2"/>
<path d="M182.069 54.7666L182.084 50.799L180.322 49.6729L180.306 53.6404L177.19 51.6653V53.9003L180.306 55.8928L180.29 59.8084L182.053 60.9345L182.069 57.0016L185.184 58.9941V56.7591L182.069 54.7666Z" fill="#8444B2"/>
<path d="M322.437 106.293C322.055 106.9 321.887 107.639 321.965 108.372V113.085C321.965 113.951 321.713 114.419 321.209 114.471C320.43 114.443 319.676 114.166 319.038 113.674V116.792C319.863 117.288 320.595 117.952 321.193 118.75C321.698 119.462 321.964 120.343 321.949 121.245V125.767C321.925 126.693 322.081 127.615 322.405 128.47C322.788 129.314 323.324 130.062 323.979 130.67C324.843 131.508 325.788 132.24 326.796 132.853V129.839C326.175 129.457 325.638 128.931 325.222 128.297C324.954 127.767 324.813 127.171 324.813 126.564V121.99C324.76 121.027 324.497 120.092 324.044 119.265C323.592 118.438 322.965 117.745 322.216 117.243V117.07C323.932 117.849 324.797 117.312 324.829 115.476V111.144C324.829 110.451 324.97 110.018 325.253 109.879C325.537 109.741 326.056 109.879 326.827 110.33V107.315C325.955 106.714 325.013 106.248 324.026 105.929C323.756 105.825 323.465 105.804 323.185 105.868C322.905 105.932 322.646 106.079 322.437 106.293Z" fill="white"/>
<path d="M338.692 125.611C338.21 124.94 337.949 124.11 337.952 123.255V118.525C337.989 117.159 337.613 115.818 336.882 114.713C335.86 113.366 334.602 112.259 333.184 111.456V114.471C333.806 114.843 334.344 115.364 334.758 115.995C335.03 116.523 335.171 117.121 335.167 117.728V122.059C335.219 123.053 335.484 124.018 335.941 124.876C336.398 125.735 337.033 126.462 337.795 126.997V127.17C337.197 126.814 336.495 126.733 335.844 126.945C335.387 127.188 335.151 127.742 335.151 128.678V133.148C335.151 133.841 335.01 134.274 334.742 134.43C334.475 134.586 333.924 134.43 333.168 133.962V136.977C334.251 137.862 335.55 138.369 336.898 138.432C337.606 138.276 337.968 137.462 337.968 135.972V131.45C337.968 130.514 338.22 129.995 338.708 129.908C339.488 129.929 340.244 130.206 340.879 130.705V127.517C340.05 127.035 339.308 126.389 338.692 125.611Z" fill="white"/>
<path d="M283.725 191.154L292.726 201.931L292.742 199.176L286.526 191.986L292.758 192.298V189.543L283.725 189.508V191.154Z" fill="#1F5E77"/>
<path d="M293.655 204.859L296.173 206.453L301.177 192.783L298.643 191.189L293.655 204.859Z" fill="#1F5E77"/>
<path d="M302.042 195.451V198.206L308.258 205.794L302.026 205.084L302.011 207.839L311.059 208.532V206.886L302.042 195.451Z" fill="#1F5E77"/>
<path d="M116.181 140.823V142.677L123.262 147.164V145.31L116.181 140.823Z" fill="#F5D012"/>
<path d="M116.181 144.202V146.055L123.262 150.56V148.706L116.181 144.202Z" fill="#EDF0F8"/>
<path d="M116.181 147.597V149.451L123.262 153.939V152.085L116.181 147.597Z" fill="#EDF0F8"/>
<path d="M169.59 186.753V184.9L125.906 157.161V159.015L169.59 186.753Z" fill="#EDF0F8"/>
<path d="M116.181 150.976V152.83L123.262 157.334V155.481L116.181 150.976Z" fill="#EDF0F8"/>
<path d="M116.181 154.372V156.225L123.262 160.713V158.859L116.181 154.372Z" fill="#EDF0F8"/>
<path d="M169.59 190.132V188.278L125.906 160.557V162.394L169.59 190.132Z" fill="#50E85E"/>
<path d="M116.181 164.525V166.378L123.262 170.883V169.029L116.181 164.525Z" fill="#EDF0F8"/>
<path d="M116.181 167.92V169.774L123.262 174.262V172.408L116.181 167.92Z" fill="#F5D012"/>
<path d="M116.181 181.469V183.323L123.262 187.828V185.956L116.181 181.469Z" fill="#EDF0F8"/>
<path d="M116.181 184.865V186.719L123.262 191.206V189.352L116.181 184.865Z" fill="#EDF0F8"/>
<path d="M153.46 208.532L125.906 191.033V192.887L153.46 210.386V208.532Z" fill="#50E85E"/>
<path d="M154.908 209.45V211.321L169.59 220.625V218.771L154.908 209.45Z" fill="#EDF0F8"/>
<path d="M139.754 196.438L125.906 187.654V189.508L139.754 198.292V196.438Z" fill="#EDF0F8"/>
<path d="M141.202 197.374V199.211L169.59 217.247V215.393L141.202 197.374Z" fill="#EDF0F8"/>
<path d="M165.845 202.849V204.703L169.59 207.076V205.222L165.845 202.849Z" fill="#EDF0F8"/>
<path d="M145.529 186.563L125.906 174.106V175.96L145.529 188.417V186.563Z" fill="#ED5561"/>
<path d="M137.488 154.354L125.906 146.991V148.845L137.488 156.208V154.354Z" fill="#EDF0F8"/>
<path d="M156.481 166.413L138.951 155.273V157.127L156.481 168.267V166.413Z" fill="#EDF0F8"/>
<path d="M146.253 163.312L133.916 155.463V157.317L146.253 165.166V163.312Z" fill="#EDF0F8"/>
<path d="M159.22 171.524L147.716 164.23V166.084L159.22 173.395V171.524Z" fill="#ED5561"/>
<path d="M160.667 172.46V174.314L169.59 179.979V178.125L160.667 172.46Z" fill="#EDF0F8"/>
<path d="M128.188 155.221V157.075L137.488 162.983V161.129L128.188 155.221Z" fill="#ED5561"/>
<path d="M165.939 179.2L138.951 162.047V163.901L165.939 181.053V179.2Z" fill="#EDF0F8"/>
<path d="M150.486 179.546L132.846 168.336V170.19L150.486 181.4V179.546Z" fill="#EDF0F8"/>
<path d="M165.939 189.352L151.934 180.464V182.318L165.939 191.206V189.352Z" fill="#EDF0F8"/>
<path d="M164.397 198.535L146.993 187.481V189.335L164.397 200.389V198.535Z" fill="#EDF0F8"/>
<path d="M154.908 195.901V197.755L164.397 203.785V201.931L154.908 195.901Z" fill="#50E85E"/>
<path d="M129.321 179.65L125.906 177.484V179.338L129.321 181.504V179.65Z" fill="#EDF0F8"/>
<path d="M135.726 183.721V185.575L153.46 196.837V194.983L135.726 183.721Z" fill="#EDF0F8"/>
<path d="M134.278 182.803L130.784 180.585V182.439L134.278 184.657V182.803Z" fill="#EDF0F8"/>
<path d="M150.187 196.283L130.784 183.964V185.818L150.187 198.137V196.283Z" fill="#EDF0F8"/>
<path d="M172.659 176.705V177.207L174.61 178.454V177.935L172.659 176.705Z" fill="#EDF0F8"/>
<path d="M172.659 177.64V178.143L174.61 179.39V178.87L172.659 177.64Z" fill="#EDF0F8"/>
<path d="M172.659 178.576V179.078L174.61 180.326V179.806L172.659 178.576Z" fill="#EDF0F8"/>
<path d="M187.372 189.352V188.85L175.333 181.209V181.712L187.372 189.352Z" fill="#EDF0F8"/>
<path d="M172.659 179.511V180.014L174.61 181.244V180.741L172.659 179.511Z" fill="#EDF0F8"/>
<path d="M172.659 180.43V180.949L174.61 182.18V181.677L172.659 180.43Z" fill="#EDF0F8"/>
<path d="M187.372 190.288V189.785L175.333 182.145V182.647L187.372 190.288Z" fill="#EDF0F8"/>
<path d="M172.659 183.236V183.756L174.61 184.986V184.484L172.659 183.236Z" fill="#EDF0F8"/>
<path d="M172.659 184.172V184.674L174.61 185.922V185.402L172.659 184.172Z" fill="#EDF0F8"/>
<path d="M172.659 187.897V188.417L174.61 189.664V189.144L172.659 187.897Z" fill="#EDF0F8"/>
<path d="M172.659 188.833V189.352L174.61 190.582V190.08L172.659 188.833Z" fill="#EDF0F8"/>
<path d="M182.934 195.364L175.333 190.548V191.05L182.934 195.867V195.364Z" fill="#EDF0F8"/>
<path d="M183.328 195.624V196.127L187.372 198.691V198.188L183.328 195.624Z" fill="#EDF0F8"/>
<path d="M179.157 192.038L175.333 189.612V190.115L179.157 192.54V192.038Z" fill="#EDF0F8"/>
<path d="M179.551 192.28V192.8L187.372 197.755V197.253L179.551 192.28Z" fill="#EDF0F8"/>
<path d="M186.349 193.805V194.307L187.372 194.966V194.446L186.349 193.805Z" fill="#EDF0F8"/>
<path d="M180.747 189.3L175.333 185.87V186.39L180.747 189.82V189.3Z" fill="#EDF0F8"/>
<path d="M178.528 180.429L175.333 178.402V178.922L178.528 180.949V180.429Z" fill="#EDF0F8"/>
<path d="M183.768 183.756L178.921 180.689V181.192L183.768 184.259V183.756Z" fill="#EDF0F8"/>
<path d="M180.936 182.907L177.537 180.741V181.244L180.936 183.41V182.907Z" fill="#EDF0F8"/>
<path d="M184.508 185.159L181.345 183.15V183.669L184.508 185.679V185.159Z" fill="#EDF0F8"/>
<path d="M184.917 185.419V185.939L187.372 187.499V186.979L184.917 185.419Z" fill="#EDF0F8"/>
<path d="M175.963 180.672V181.192L178.528 182.803V182.301L175.963 180.672Z" fill="#EDF0F8"/>
<path d="M186.365 187.273L178.921 182.561V183.063L186.365 187.793V187.273Z" fill="#EDF0F8"/>
<path d="M182.1 187.377L177.253 184.293V184.796L182.1 187.88V187.377Z" fill="#EDF0F8"/>
<path d="M186.365 190.08L182.509 187.637V188.139L186.365 190.582V190.08Z" fill="#EDF0F8"/>
<path d="M185.94 192.61L181.14 189.56V190.08L185.94 193.129V192.61Z" fill="#EDF0F8"/>
<path d="M183.328 191.882V192.402L185.94 194.048V193.545L183.328 191.882Z" fill="#EDF0F8"/>
<path d="M176.278 187.412L175.333 186.805V187.325L176.278 187.914V187.412Z" fill="#EDF0F8"/>
<path d="M178.041 188.521V189.041L182.935 192.142V191.622L178.041 188.521Z" fill="#EDF0F8"/>
<path d="M177.647 188.278L176.671 187.654V188.174L177.647 188.78V188.278Z" fill="#EDF0F8"/>
<path d="M182.022 191.986L176.671 188.59V189.11L182.022 192.505V191.986Z" fill="#EDF0F8"/>
<path d="M172.659 192.506V193.008L174.61 194.256V193.736L172.659 192.506Z" fill="#EDF0F8"/>
<path d="M172.659 193.424V193.944L174.61 195.191V194.671L172.659 193.424Z" fill="#EDF0F8"/>
<path d="M172.659 194.359V194.879L174.61 196.109V195.607L172.659 194.359Z" fill="#EDF0F8"/>
<path d="M187.372 205.153V204.651L175.333 197.01V197.513L187.372 205.153Z" fill="#EDF0F8"/>
<path d="M172.659 195.295V195.815L174.61 197.045V196.542L172.659 195.295Z" fill="#EDF0F8"/>
<path d="M172.659 196.23V196.75L174.61 197.98V197.478L172.659 196.23Z" fill="#EDF0F8"/>
<path d="M187.372 206.089V205.586L175.333 197.928V198.448L187.372 206.089Z" fill="#EDF0F8"/>
<path d="M172.659 199.037V199.54L174.61 200.787V200.267L172.659 199.037Z" fill="#EDF0F8"/>
<path d="M172.659 199.973V200.475L174.61 201.723V201.203L172.659 199.973Z" fill="#EDF0F8"/>
<path d="M172.659 203.698V204.218L174.61 205.448V204.945L172.659 203.698Z" fill="#EDF0F8"/>
<path d="M172.659 204.634V205.153L174.61 206.383V205.881L172.659 204.634Z" fill="#EDF0F8"/>
<path d="M182.934 211.165L175.333 206.331V206.851L182.934 211.668V211.165Z" fill="#EDF0F8"/>
<path d="M183.328 211.408V211.927L187.372 214.492V213.972L183.328 211.408Z" fill="#EDF0F8"/>
<path d="M179.157 207.821L175.333 205.413V205.916L179.157 208.341V207.821Z" fill="#EDF0F8"/>
<path d="M179.551 208.081V208.584L187.372 213.556V213.054L179.551 208.081Z" fill="#EDF0F8"/>
<path d="M186.349 209.589V210.108L187.372 210.749V210.247L186.349 209.589Z" fill="#EDF0F8"/>
<path d="M180.747 205.101L175.333 201.671V202.173L180.747 205.621V205.101Z" fill="#EDF0F8"/>
<path d="M178.528 196.23L175.333 194.203V194.706L178.528 196.733V196.23Z" fill="#EDF0F8"/>
<path d="M183.768 199.557L178.921 196.49V196.993L183.768 200.06V199.557Z" fill="#EDF0F8"/>
<path d="M180.936 198.691L177.537 196.542V197.045L180.936 199.211V198.691Z" fill="#EDF0F8"/>
<path d="M184.508 200.96L181.345 198.951V199.47L184.508 201.48V200.96Z" fill="#EDF0F8"/>
<path d="M184.917 201.22V201.723L187.372 203.282V202.78L184.917 201.22Z" fill="#EDF0F8"/>
<path d="M175.963 196.473V196.976L178.528 198.604V198.102L175.963 196.473Z" fill="#EDF0F8"/>
<path d="M186.365 203.074L178.921 198.344V198.864L186.365 203.577V203.074Z" fill="#EDF0F8"/>
<path d="M182.1 203.178L177.253 200.077V200.597L182.1 203.681V203.178Z" fill="#EDF0F8"/>
<path d="M186.365 205.881L182.509 203.421V203.94L186.365 206.383V205.881Z" fill="#EDF0F8"/>
<path d="M185.94 208.411L181.14 205.361V205.864L185.94 208.913V208.411Z" fill="#EDF0F8"/>
<path d="M183.328 207.683V208.185L185.94 209.849V209.346L183.328 207.683Z" fill="#EDF0F8"/>
<path d="M176.278 203.196L175.333 202.606V203.109L176.278 203.715V203.196Z" fill="#EDF0F8"/>
<path d="M178.041 204.322V204.824L182.935 207.943V207.423L178.041 204.322Z" fill="#EDF0F8"/>
<path d="M177.647 204.062L176.671 203.455V203.958L177.647 204.581V204.062Z" fill="#EDF0F8"/>
<path d="M182.022 207.787L176.671 204.391V204.893L182.022 208.289V207.787Z" fill="#EDF0F8"/>
<path d="M172.659 208.289V208.809L174.61 210.039V209.537L172.659 208.289Z" fill="#EDF0F8"/>
<path d="M172.659 209.225V209.745L174.61 210.975V210.472L172.659 209.225Z" fill="#EDF0F8"/>
<path d="M172.659 210.16V210.68L174.61 211.91V211.408L172.659 210.16Z" fill="#EDF0F8"/>
<path d="M187.372 220.954V220.435L175.333 212.794V213.314L187.372 220.954Z" fill="#EDF0F8"/>
<path d="M172.659 211.096V211.616L174.61 212.846V212.343L172.659 211.096Z" fill="#EDF0F8"/>
<path d="M172.659 212.031V212.534L174.61 213.781V213.262L172.659 212.031Z" fill="#EDF0F8"/>
<path d="M187.372 221.89V221.37L175.333 213.729V214.249L187.372 221.89Z" fill="#EDF0F8"/>
<path d="M172.659 214.838V215.341L174.61 216.571V216.068L172.659 214.838Z" fill="#EDF0F8"/>
<path d="M172.659 215.757V216.276L174.61 217.507V217.004L172.659 215.757Z" fill="#EDF0F8"/>
<path d="M172.659 219.499V220.001L174.61 221.249V220.729L172.659 219.499Z" fill="#EDF0F8"/>
<path d="M172.659 220.435V220.937L174.61 222.184V221.665L172.659 220.435Z" fill="#EDF0F8"/>
<path d="M182.934 226.949L175.333 222.132V222.652L182.934 227.469V226.949Z" fill="#EDF0F8"/>
<path d="M183.328 227.209V227.729L187.372 230.293V229.773L183.328 227.209Z" fill="#EDF0F8"/>
<path d="M179.157 223.622L175.333 221.197V221.717L179.157 224.142V223.622Z" fill="#EDF0F8"/>
<path d="M179.551 223.882V224.385L187.372 229.357V228.837L179.551 223.882Z" fill="#EDF0F8"/>
<path d="M186.349 225.39V225.892L187.372 226.55V226.048L186.349 225.39Z" fill="#EDF0F8"/>
<path d="M180.747 220.902L175.333 217.472V217.974L180.747 221.405V220.902Z" fill="#EDF0F8"/>
<path d="M178.528 212.031L175.333 210.004V210.507L178.528 212.534V212.031Z" fill="#EDF0F8"/>
<path d="M183.768 215.341L178.921 212.274V212.794L183.768 215.861V215.341Z" fill="#EDF0F8"/>
<path d="M180.936 214.492L177.537 212.326V212.846L180.936 214.994V214.492Z" fill="#EDF0F8"/>
<path d="M184.508 216.761L181.345 214.752V215.254L184.508 217.264V216.761Z" fill="#EDF0F8"/>
<path d="M184.917 217.004V217.524L187.372 219.083V218.581L184.917 217.004Z" fill="#EDF0F8"/>
<path d="M175.963 212.257V212.777L178.528 214.405V213.885L175.963 212.257Z" fill="#EDF0F8"/>
<path d="M186.365 218.875L178.921 214.145V214.648L186.365 219.378V218.875Z" fill="#EDF0F8"/>
<path d="M182.1 218.962L177.253 215.878V216.38L182.1 219.482V218.962Z" fill="#EDF0F8"/>
<path d="M186.365 221.665L182.509 219.222V219.724L186.365 222.184V221.665Z" fill="#EDF0F8"/>
<path d="M185.94 224.194L181.14 221.145V221.665L185.94 224.714V224.194Z" fill="#EDF0F8"/>
<path d="M183.328 223.484V223.986L185.94 225.65V225.13L183.328 223.484Z" fill="#EDF0F8"/>
<path d="M176.278 218.997L175.333 218.407V218.91L176.278 219.499V218.997Z" fill="#EDF0F8"/>
<path d="M178.041 220.123V220.625L182.935 223.727V223.224L178.041 220.123Z" fill="#EDF0F8"/>
<path d="M177.647 219.863L176.671 219.256V219.759L177.647 220.365V219.863Z" fill="#EDF0F8"/>
<path d="M182.022 223.588L176.671 220.192V220.694L182.022 224.09V223.588Z" fill="#EDF0F8"/>
<path d="M172.659 224.09V224.61L174.61 225.84V225.338L172.659 224.09Z" fill="#EDF0F8"/>
<path d="M172.659 225.026V225.528L174.61 226.776V226.256L172.659 225.026Z" fill="#EDF0F8"/>
<path d="M172.659 225.961V226.464L174.61 227.711V227.192L172.659 225.961Z" fill="#EDF0F8"/>
<path d="M187.372 236.755V236.236L175.333 228.595V229.115L187.372 236.755Z" fill="#EDF0F8"/>
<path d="M172.659 226.897V227.399L174.61 228.647V228.127L172.659 226.897Z" fill="#EDF0F8"/>
<path d="M172.659 227.833V228.335L174.61 229.565V229.063L172.659 227.833Z" fill="#EDF0F8"/>
<path d="M187.372 237.674V237.171L175.333 229.531V230.033L187.372 237.674Z" fill="#EDF0F8"/>
<path d="M172.659 230.622V231.142L174.61 232.372V231.87L172.659 230.622Z" fill="#EDF0F8"/>
<path d="M172.659 231.558V232.077L174.61 233.308V232.805L172.659 231.558Z" fill="#EDF0F8"/>
<path d="M186.349 241.191V241.693L187.372 242.351V241.832L186.349 241.191Z" fill="#EDF0F8"/>
<path d="M180.747 236.703L175.333 233.256V233.775L180.747 237.206V236.703Z" fill="#EDF0F8"/>
<path d="M178.528 227.815L175.333 225.788V226.308L178.528 228.335V227.815Z" fill="#EDF0F8"/>
<path d="M183.768 231.142L178.921 228.075V228.595L183.768 231.662V231.142Z" fill="#EDF0F8"/>
<path d="M180.936 230.293L177.537 228.127V228.647L180.936 230.795V230.293Z" fill="#EDF0F8"/>
<path d="M184.508 232.562L181.345 230.535V231.055L184.508 233.065V232.562Z" fill="#EDF0F8"/>
<path d="M184.917 232.805V233.325L187.372 234.884V234.364L184.917 232.805Z" fill="#EDF0F8"/>
<path d="M175.963 228.058V228.578L178.528 230.206V229.686L175.963 228.058Z" fill="#EDF0F8"/>
<path d="M186.365 234.659L178.921 229.946V230.449L186.365 235.179V234.659Z" fill="#EDF0F8"/>
<path d="M182.1 234.763L177.253 231.679V232.181L182.1 235.265V234.763Z" fill="#EDF0F8"/>
<path d="M186.365 237.466L182.509 235.023V235.525L186.365 237.985V237.466Z" fill="#EDF0F8"/>
<path d="M185.94 239.995L181.14 236.946V237.466L185.94 240.515V239.995Z" fill="#EDF0F8"/>
<path d="M183.328 239.268V239.787L185.94 241.433V240.931L183.328 239.268Z" fill="#EDF0F8"/>
<path d="M176.278 234.798L175.333 234.191V234.711L176.278 235.3V234.798Z" fill="#EDF0F8"/>
<path d="M178.041 235.906V236.426L182.935 239.527V239.025L178.041 235.906Z" fill="#EDF0F8"/>
<path d="M177.647 235.664L176.671 235.04V235.56L177.647 236.166V235.664Z" fill="#EDF0F8"/>
<path d="M182.022 239.371L176.671 235.976V236.495L182.022 239.891V239.371Z" fill="#EDF0F8"/>
<path d="M111.649 137.947L109.32 136.457C109.293 136.437 109.261 136.427 109.229 136.426C109.197 136.425 109.165 136.434 109.137 136.452C109.109 136.47 109.087 136.496 109.072 136.528C109.057 136.559 109.05 136.595 109.052 136.63V139.697C109.051 139.773 109.07 139.847 109.106 139.912C109.143 139.976 109.195 140.028 109.257 140.061L111.586 141.551C111.612 141.566 111.642 141.573 111.672 141.571C111.702 141.57 111.731 141.56 111.756 141.543C111.782 141.525 111.802 141.501 111.817 141.472C111.831 141.443 111.838 141.41 111.838 141.377V138.311C111.842 138.236 111.826 138.162 111.793 138.098C111.759 138.033 111.709 137.981 111.649 137.947Z" fill="#50E85E"/>
<path d="M111.649 142.538L109.32 141.066C109.294 141.047 109.264 141.036 109.233 141.035C109.202 141.033 109.172 141.041 109.144 141.057C109.117 141.073 109.094 141.096 109.078 141.125C109.062 141.154 109.053 141.187 109.052 141.221V144.288C109.051 144.364 109.07 144.438 109.106 144.503C109.143 144.567 109.195 144.619 109.257 144.652L111.586 146.142C111.612 146.157 111.642 146.164 111.672 146.163C111.702 146.161 111.731 146.151 111.756 146.134C111.782 146.116 111.802 146.092 111.817 146.063C111.831 146.034 111.838 146.002 111.838 145.969V142.919C111.839 142.843 111.823 142.768 111.79 142.701C111.757 142.634 111.708 142.578 111.649 142.538Z" fill="#50E85E"/>
<path d="M111.649 147.13L109.32 145.657C109.294 145.638 109.264 145.628 109.233 145.626C109.202 145.625 109.172 145.632 109.144 145.648C109.117 145.664 109.094 145.688 109.078 145.717C109.062 145.746 109.053 145.779 109.052 145.813V148.897C109.056 148.971 109.077 149.044 109.113 149.107C109.149 149.171 109.198 149.223 109.257 149.261L111.586 150.733C111.61 150.754 111.64 150.766 111.67 150.768C111.701 150.771 111.731 150.763 111.758 150.746C111.785 150.73 111.807 150.705 111.821 150.675C111.835 150.645 111.841 150.611 111.838 150.577V147.511C111.839 147.434 111.823 147.359 111.79 147.292C111.757 147.225 111.708 147.169 111.649 147.13Z" fill="#50E85E"/>
<path d="M111.649 151.738L109.32 150.248C109.293 150.229 109.261 150.218 109.229 150.217C109.197 150.216 109.165 150.225 109.137 150.243C109.109 150.261 109.087 150.288 109.072 150.319C109.057 150.351 109.05 150.386 109.052 150.421V153.488C109.051 153.564 109.07 153.638 109.106 153.703C109.143 153.767 109.195 153.819 109.257 153.852L111.586 155.342C111.612 155.357 111.642 155.364 111.672 155.363C111.702 155.361 111.731 155.351 111.756 155.334C111.782 155.316 111.802 155.292 111.817 155.263C111.831 155.234 111.838 155.202 111.838 155.169V152.102C111.842 152.028 111.826 151.954 111.793 151.889C111.759 151.824 111.709 151.772 111.649 151.738Z" fill="#50E85E"/>
<path d="M111.649 156.33L109.32 154.857C109.294 154.838 109.264 154.828 109.233 154.826C109.202 154.825 109.172 154.832 109.144 154.848C109.117 154.864 109.094 154.888 109.078 154.917C109.062 154.946 109.053 154.979 109.052 155.013V158.079C109.051 158.155 109.07 158.23 109.106 158.294C109.143 158.359 109.195 158.41 109.257 158.443L111.586 159.933C111.612 159.948 111.642 159.955 111.672 159.954C111.702 159.952 111.731 159.943 111.756 159.925C111.782 159.908 111.802 159.883 111.817 159.854C111.831 159.825 111.838 159.793 111.838 159.76V156.641C111.831 156.577 111.81 156.515 111.777 156.461C111.744 156.406 111.7 156.362 111.649 156.33Z" fill="#50E85E"/>
<path d="M111.649 160.921L109.32 159.448C109.294 159.43 109.264 159.419 109.233 159.417C109.202 159.416 109.172 159.423 109.144 159.439C109.117 159.455 109.094 159.479 109.078 159.508C109.062 159.537 109.053 159.57 109.052 159.604V162.688C109.056 162.763 109.077 162.835 109.113 162.898C109.149 162.962 109.198 163.015 109.257 163.052L111.586 164.525C111.611 164.539 111.64 164.546 111.668 164.546C111.697 164.545 111.725 164.537 111.75 164.521C111.775 164.506 111.796 164.484 111.811 164.457C111.826 164.43 111.836 164.4 111.838 164.369V161.302C111.839 161.226 111.823 161.15 111.79 161.083C111.757 161.017 111.708 160.96 111.649 160.921Z" fill="#50E85E"/>
<path d="M111.649 165.529L109.32 164.039C109.293 164.02 109.261 164.009 109.229 164.008C109.197 164.007 109.165 164.017 109.137 164.035C109.109 164.053 109.087 164.079 109.072 164.11C109.057 164.142 109.05 164.177 109.052 164.213V167.279C109.051 167.355 109.07 167.43 109.106 167.494C109.143 167.559 109.195 167.61 109.257 167.643L111.586 169.133C111.612 169.148 111.642 169.155 111.672 169.154C111.702 169.152 111.731 169.143 111.756 169.125C111.782 169.108 111.802 169.083 111.817 169.054C111.831 169.025 111.838 168.993 111.838 168.96V165.893C111.842 165.819 111.826 165.745 111.793 165.68C111.759 165.616 111.709 165.563 111.649 165.529Z" fill="#50E85E"/>
<path d="M111.649 170.121L109.32 168.631C109.292 168.617 109.262 168.61 109.231 168.612C109.201 168.613 109.171 168.623 109.145 168.64C109.119 168.657 109.096 168.681 109.08 168.71C109.064 168.738 109.055 168.771 109.052 168.804V171.871C109.051 171.946 109.07 172.021 109.106 172.085C109.143 172.15 109.195 172.202 109.257 172.234L111.586 173.724C111.612 173.739 111.642 173.747 111.672 173.745C111.702 173.744 111.731 173.734 111.756 173.716C111.782 173.699 111.802 173.675 111.817 173.646C111.831 173.617 111.838 173.584 111.838 173.551V170.502C111.841 170.425 111.825 170.349 111.792 170.282C111.759 170.215 111.709 170.159 111.649 170.121Z" fill="#50E85E"/>
<path d="M111.649 174.712L109.32 173.239C109.294 173.221 109.264 173.21 109.233 173.209C109.202 173.207 109.172 173.215 109.144 173.231C109.117 173.247 109.094 173.27 109.078 173.299C109.062 173.328 109.053 173.361 109.052 173.395V176.479C109.054 176.552 109.074 176.623 109.111 176.684C109.147 176.745 109.197 176.794 109.257 176.826L111.586 178.316C111.611 178.33 111.64 178.337 111.668 178.337C111.697 178.336 111.725 178.328 111.75 178.312C111.775 178.297 111.796 178.275 111.811 178.248C111.826 178.222 111.836 178.191 111.838 178.16V175.093C111.839 175.017 111.823 174.942 111.79 174.875C111.757 174.808 111.708 174.752 111.649 174.712Z" fill="#50E85E"/>
<path d="M111.649 179.321L109.32 177.831C109.293 177.811 109.261 177.8 109.229 177.8C109.197 177.799 109.165 177.808 109.137 177.826C109.109 177.844 109.087 177.87 109.072 177.902C109.057 177.933 109.05 177.969 109.052 178.004V181.071C109.053 181.146 109.073 181.22 109.109 181.284C109.145 181.348 109.196 181.4 109.257 181.434L111.586 182.907C111.61 182.928 111.64 182.94 111.67 182.942C111.701 182.944 111.731 182.937 111.758 182.92C111.785 182.904 111.807 182.879 111.821 182.849C111.835 182.819 111.841 182.785 111.838 182.751V179.685C111.842 179.61 111.826 179.536 111.793 179.472C111.759 179.407 111.709 179.354 111.649 179.321Z" fill="#50E85E"/>
<path d="M111.649 183.912L109.32 182.422C109.293 182.403 109.261 182.392 109.229 182.391C109.197 182.39 109.165 182.399 109.137 182.417C109.109 182.435 109.087 182.461 109.072 182.493C109.057 182.524 109.05 182.56 109.052 182.595V185.662C109.051 185.738 109.07 185.812 109.106 185.877C109.143 185.941 109.195 185.993 109.257 186.026L111.586 187.516C111.612 187.531 111.642 187.538 111.672 187.536C111.702 187.535 111.731 187.525 111.756 187.508C111.782 187.49 111.802 187.466 111.817 187.437C111.831 187.408 111.838 187.375 111.838 187.343V184.363C111.854 184.275 111.845 184.184 111.811 184.103C111.777 184.022 111.72 183.955 111.649 183.912Z" fill="#50E85E"/>
<path d="M111.649 188.503L109.32 187.031C109.294 187.012 109.264 187.001 109.233 187C109.202 186.998 109.172 187.006 109.144 187.022C109.117 187.038 109.094 187.061 109.078 187.09C109.062 187.119 109.053 187.153 109.052 187.187V190.271C109.054 190.343 109.074 190.414 109.111 190.475C109.147 190.536 109.197 190.585 109.257 190.617L111.586 192.107C111.612 192.122 111.642 192.129 111.672 192.128C111.702 192.126 111.731 192.116 111.756 192.099C111.782 192.081 111.802 192.057 111.817 192.028C111.831 191.999 111.838 191.967 111.838 191.934V188.884C111.839 188.808 111.823 188.733 111.79 188.666C111.757 188.599 111.708 188.543 111.649 188.503Z" fill="#50E85E"/>
<g opacity="0.4">
<path opacity="0.4" d="M221.158 154.233V156.087L228.239 160.574V158.721L221.158 154.233Z" fill="white"/>
<path opacity="0.4" d="M221.158 157.612V159.465L228.239 163.97V162.099L221.158 157.612Z" fill="white"/>
<path opacity="0.4" d="M221.158 161.008V162.861L228.239 167.349V165.495L221.158 161.008Z" fill="white"/>
<path opacity="0.4" d="M274.567 200.164V198.31L230.898 170.571V172.425L274.567 200.164Z" fill="white"/>
<path opacity="0.4" d="M221.158 164.386V166.24L228.239 170.745V168.891L221.158 164.386Z" fill="white"/>
<path opacity="0.4" d="M221.158 167.782V169.636L228.239 174.123V172.269L221.158 167.782Z" fill="white"/>
<path opacity="0.4" d="M274.567 203.542V201.688L230.898 173.967V175.804L274.567 203.542Z" fill="white"/>
<path opacity="0.4" d="M221.158 177.935V179.806L228.239 184.293V182.44L221.158 177.935Z" fill="white"/>
<path opacity="0.4" d="M221.158 181.331V183.184L228.239 187.672V185.818L221.158 181.331Z" fill="white"/>
<path opacity="0.4" d="M221.158 194.879V196.733L228.239 201.238V199.384L221.158 194.879Z" fill="white"/>
<path opacity="0.4" d="M221.158 198.275V200.129L228.239 204.616V202.762L221.158 198.275Z" fill="white"/>
<path opacity="0.4" d="M258.453 221.942L230.898 204.443V206.314L258.453 223.796V221.942Z" fill="white"/>
<path opacity="0.4" d="M259.9 222.86V224.731L274.567 234.035V232.181L259.9 222.86Z" fill="white"/>
<path opacity="0.4" d="M244.746 209.849L230.898 201.064V202.918L244.746 211.702V209.849Z" fill="white"/>
<path opacity="0.4" d="M246.194 210.784V212.621L274.567 230.657V228.803L246.194 210.784Z" fill="white"/>
<path opacity="0.4" d="M270.837 216.259V218.113L274.566 220.486V218.633L270.837 216.259Z" fill="white"/>
<path opacity="0.4" d="M250.522 199.973L230.898 187.516V189.37L250.522 201.827V199.973Z" fill="white"/>
<path opacity="0.4" d="M242.48 167.765L230.898 160.401V162.255L242.48 169.618V167.765Z" fill="white"/>
<path opacity="0.4" d="M261.474 179.823L243.928 168.683V170.537L261.474 181.677V179.823Z" fill="white"/>
<path opacity="0.4" d="M251.245 176.722L238.908 168.873V170.727L251.245 178.576V176.722Z" fill="white"/>
<path opacity="0.4" d="M264.197 184.952L252.693 177.64V179.494L264.197 186.788V184.952Z" fill="white"/>
<path opacity="0.4" d="M265.644 185.87V187.724L274.567 193.389V191.535L265.644 185.87Z" fill="white"/>
<path opacity="0.4" d="M233.18 168.631V170.485L242.48 176.393V174.539L233.18 168.631Z" fill="white"/>
<path opacity="0.4" d="M270.932 192.609L243.928 175.457V177.311L270.932 194.463V192.609Z" fill="white"/>
<path opacity="0.4" d="M255.478 192.956L237.822 181.746V183.6L255.478 194.81V192.956Z" fill="white"/>
<path opacity="0.4" d="M270.932 202.762L256.926 193.874V195.728L270.932 204.634V202.762Z" fill="white"/>
<path opacity="0.4" d="M269.389 211.945L251.969 200.891V202.745L269.389 213.799V211.945Z" fill="white"/>
<path opacity="0.4" d="M259.9 209.312V211.165L269.389 217.195V215.341L259.9 209.312Z" fill="white"/>
<path opacity="0.4" d="M234.313 193.06L230.898 190.894V192.748L234.313 194.914V193.06Z" fill="white"/>
<path opacity="0.4" d="M240.702 197.132V198.985L258.453 210.247V208.393L240.702 197.132Z" fill="white"/>
<path opacity="0.4" d="M239.254 196.213L235.761 193.996V195.849L239.254 198.067V196.213Z" fill="white"/>
<path opacity="0.4" d="M255.164 209.693L235.761 197.374V199.228L255.164 211.546V209.693Z" fill="white"/>
</g>
<g opacity="0.4">
<path opacity="0.4" d="M286.211 38.1165V39.9703L293.293 44.4577V42.6038L286.211 38.1165Z" fill="white"/>
<path opacity="0.4" d="M286.211 41.4949V43.3487L293.293 47.8534V45.9995L286.211 41.4949Z" fill="white"/>
<path opacity="0.4" d="M286.211 44.8909V46.7447L293.293 51.2321V49.3782L286.211 44.8909Z" fill="white"/>
<path opacity="0.4" d="M339.62 84.0468V82.193L295.952 54.4546V56.3084L339.62 84.0468Z" fill="white"/>
<path opacity="0.4" d="M286.211 48.2866V50.1405L293.293 54.6278V52.774L286.211 48.2866Z" fill="white"/>
<path opacity="0.4" d="M286.211 51.665V53.5189L293.293 58.0236V56.1524L286.211 51.665Z" fill="white"/>
<path opacity="0.4" d="M339.62 87.4426V85.5887L295.952 57.8503V59.7042L339.62 87.4426Z" fill="white"/>
<path opacity="0.4" d="M286.211 61.8352V63.6891L293.293 68.1764V66.3226L286.211 61.8352Z" fill="white"/>
<path opacity="0.4" d="M286.211 65.2139V67.0677L293.293 71.5724V69.7185L286.211 65.2139Z" fill="white"/>
<path opacity="0.4" d="M286.211 78.7798V80.6336L293.293 85.121V83.2671L286.211 78.7798Z" fill="white"/>
<path opacity="0.4" d="M286.211 82.1584V84.0123L293.293 88.517V86.6458L286.211 82.1584Z" fill="white"/>
<path opacity="0.4" d="M323.491 105.842L295.952 88.3435V90.1974L323.491 107.696V105.842Z" fill="white"/>
<path opacity="0.4" d="M324.954 106.761V108.615L339.62 117.936V116.082L324.954 106.761Z" fill="white"/>
<path opacity="0.4" d="M309.784 93.7492L295.952 84.9478V86.8016L309.784 95.6031V93.7492Z" fill="white"/>
<path opacity="0.4" d="M311.232 94.6675V96.5213L339.62 114.54V112.686L311.232 94.6675Z" fill="white"/>
<path opacity="0.4" d="M335.891 100.142V102.014L339.62 104.37V102.516L335.891 100.142Z" fill="white"/>
<path opacity="0.4" d="M315.575 83.8561L295.952 71.3989V73.2528L315.575 85.7099V83.8561Z" fill="white"/>
<path opacity="0.4" d="M307.534 51.6478L295.952 44.3018V46.1556L307.534 53.5017V51.6478Z" fill="white"/>
<path opacity="0.4" d="M326.512 63.7063L308.982 52.5659V54.4198L326.512 65.5602V63.7063Z" fill="white"/>
<path opacity="0.4" d="M316.299 60.6051L303.946 52.7739V54.6278L316.299 62.459V60.6051Z" fill="white"/>
<path opacity="0.4" d="M329.25 68.8349L317.747 61.5234V63.3773L329.25 70.6887V68.8349Z" fill="white"/>
<path opacity="0.4" d="M330.698 69.7532V71.607L339.62 77.2725V75.4187L330.698 69.7532Z" fill="white"/>
<path opacity="0.4" d="M298.218 52.5142V54.368L307.534 60.2761V58.4222L298.218 52.5142Z" fill="white"/>
<path opacity="0.4" d="M335.985 76.4928L308.982 59.3577V61.2115L335.985 78.3466V76.4928Z" fill="white"/>
<path opacity="0.4" d="M320.516 76.8393L302.876 65.6296V67.4835L320.516 78.6932V76.8393Z" fill="white"/>
<path opacity="0.4" d="M335.985 86.663L321.98 77.7576V79.6114L335.985 88.5168V86.663Z" fill="white"/>
<path opacity="0.4" d="M334.427 95.8455L317.023 84.7917V86.6456L334.427 97.6994V95.8455Z" fill="white"/>
<path opacity="0.4" d="M324.954 93.2122V95.066L334.427 101.078V99.2242L324.954 93.2122Z" fill="white"/>
<path opacity="0.4" d="M299.367 76.9606L295.952 74.7949V76.6488L299.367 78.8145V76.9606Z" fill="white"/>
<path opacity="0.4" d="M305.756 81.0149V82.8687L323.491 94.1478V92.2766L305.756 81.0149Z" fill="white"/>
<path opacity="0.4" d="M304.308 80.0966L300.814 77.8789V79.7328L304.308 81.9504V80.0966Z" fill="white"/>
<path opacity="0.4" d="M320.217 93.5932L300.814 81.2747V83.1285L320.217 95.4471V93.5932Z" fill="white"/>
</g>
<path d="M158.291 276.188C156.847 275.641 155.303 275.487 153.793 275.74C152.283 275.994 150.851 276.647 149.62 277.644C144.9 281.109 141.752 285.839 143.672 287.606C145.592 289.373 149.29 291.262 151.698 290.309C154.105 289.356 166.002 281.663 158.291 276.188Z" fill="#0F4463"/>
<path d="M257.288 255.97L220.214 279.099L196.578 264.043L233.652 240.931L257.288 255.97Z" fill="#ED5561"/>
<path d="M227.468 278.545V279.446L264.542 256.073V255.415L227.468 278.545Z" fill="#F0CEC9"/>
<path d="M264.542 255.415L227.468 278.545L203.848 263.489L240.907 240.376L264.542 255.415Z" fill="#FFFBF0"/>
<path d="M227.468 278.545V279.446L203.848 264.39V263.489L227.468 278.545Z" fill="#F5DDD8"/>
<path d="M240.655 242.837L254.928 251.898L254.314 252.296L240.025 243.235L240.655 242.837Z" fill="#DFBAB8"/>
<path d="M239.176 243.772L253.449 252.834L252.819 253.215L238.546 244.153L239.176 243.772Z" fill="#DFBAB8"/>
<path d="M235.73 245.92L255.384 258.412L254.755 258.793L235.1 246.302L235.73 245.92Z" fill="#DFBAB8"/>
<path d="M234.36 246.77L254.015 259.261L253.401 259.643L233.731 247.151L234.36 246.77Z" fill="#DFBAB8"/>
<path d="M233.007 247.618L252.662 260.11L252.032 260.491L232.377 248L233.007 247.618Z" fill="#DFBAB8"/>
<path d="M231.638 248.468L251.293 260.959L250.679 261.34L231.024 248.849L231.638 248.468Z" fill="#DFBAB8"/>
<path d="M230.285 249.316L249.939 261.808L249.31 262.207L229.655 249.715L230.285 249.316Z" fill="#DFBAB8"/>
<path d="M228.915 250.165L248.586 262.657L247.956 263.056L228.302 250.564L228.915 250.165Z" fill="#DFBAB8"/>
<path d="M227.562 251.014L247.217 263.506L246.587 263.905L226.933 251.413L227.562 251.014Z" fill="#DFBAB8"/>
<path d="M226.193 251.863L245.864 264.355L245.234 264.754L225.58 252.262L226.193 251.863Z" fill="#DFBAB8"/>
<path d="M224.84 252.712L244.495 265.204L243.865 265.602L224.21 253.111L224.84 252.712Z" fill="#DFBAB8"/>
<path d="M223.471 253.561L243.141 266.053L242.512 266.452L222.857 253.96L223.471 253.561Z" fill="#DFBAB8"/>
<path d="M222.118 254.41L241.772 266.919L241.143 267.3L221.488 254.809L222.118 254.41Z" fill="#DFBAB8"/>
<path d="M220.764 255.276L240.419 267.751L239.789 268.149L220.135 255.658L220.764 255.276Z" fill="#DFBAB8"/>
<path d="M219.395 256.125L239.05 268.617L238.42 268.998L218.766 256.507L219.395 256.125Z" fill="#DFBAB8"/>
<path d="M218.042 256.974L237.697 269.466L237.067 269.847L217.413 257.356L218.042 256.974Z" fill="#DFBAB8"/>
<path d="M216.673 257.823L236.328 270.315L235.714 270.696L216.043 258.204L216.673 257.823Z" fill="#DFBAB8"/>
<path d="M200.653 269.432H197.191V273.555H200.653C201.275 273.555 201.871 273.827 202.311 274.311C202.751 274.795 202.998 275.452 202.998 276.137V282.824C202.994 283.506 202.745 284.158 202.306 284.639C201.866 285.119 201.272 285.389 200.653 285.389H195.57V289.512H200.653C202.266 289.512 203.812 288.808 204.954 287.554C206.095 286.301 206.739 284.6 206.743 282.824V276.189C206.747 275.304 206.593 274.428 206.289 273.609C205.985 272.791 205.537 272.047 204.971 271.419C204.406 270.791 203.733 270.293 202.992 269.952C202.251 269.611 201.456 269.434 200.653 269.432Z" fill="#A7BCCE"/>
<path d="M199.347 267.162V290.344C199.347 293.947 194.485 296.858 188.489 296.858C182.493 296.858 177.615 293.947 177.615 290.344V267.162H199.347Z" fill="#BBCEE1"/>
<path d="M177.615 267.162C177.615 270.748 182.478 273.676 188.489 273.676C194.5 273.676 199.347 270.748 199.347 267.162C199.347 263.575 194.485 260.595 188.489 260.595C182.493 260.595 177.615 263.575 177.615 267.162Z" fill="white"/>
<path d="M179.787 267.075C179.787 269.899 183.674 272.169 188.489 272.169C193.305 272.169 197.191 269.899 197.191 267.075C197.191 264.251 193.289 261.999 188.489 261.999C183.69 261.999 179.787 264.268 179.787 267.075Z" fill="#A7BCCE"/>
<path d="M188.489 265.325C184.681 265.325 181.455 266.763 180.259 268.791C181.455 270.783 184.681 272.256 188.489 272.256C192.297 272.256 195.523 270.818 196.703 268.791C195.523 266.763 192.297 265.325 188.489 265.325Z" fill="#9D4D36"/>
<path d="M192.596 273.191V296.373C194.469 295.981 196.225 295.089 197.71 293.774V270.592C196.225 271.907 194.469 272.799 192.596 273.191Z" fill="#A7BCCE"/>
</g>
<defs>
<linearGradient id="paint0_linear" x1="137.378" y1="229.461" x2="169.74" y2="132.787" gradientUnits="userSpaceOnUse">
<stop stop-color="#1C75BC"/>
<stop offset="0.28" stop-color="#2077BC"/>
<stop offset="0.54" stop-color="#2B7EBC"/>
<stop offset="0.8" stop-color="#3E88BC"/>
<stop offset="1" stop-color="#5394BC"/>
</linearGradient>
<clipPath id="clip0">
<rect width="369" height="404" fill="white"/>
</clipPath>
</defs>
</svg>
