<svg width="200" height="200" viewBox="0 0 200 200" fill="none" xmlns="http://www.w3.org/2000/svg">
<path d="M100 200C155.228 200 200 155.228 200 100C200 44.7715 155.228 0 100 0C44.7715 0 0 44.7715 0 100C0 155.228 44.7715 200 100 200Z" fill="#1CDB5D"/>
<path opacity="0.202" d="M149 157L157.5 149L150 133L138.5 124.5L145 108.5L91.8779 56L75 61L67 49.5L51 42.5L43 50.5L27 77L1 113.5C6.24884 136.92 13.3382 155.727 29.5 170.5C44.5 186 69 198 89 199C89.0157 199.001 92 199.5 92 199.5L149 157Z" fill="black"/>
<path d="M93.9922 25L88.2551 40.9637L88.3305 41.8822L91.1134 55.7382L74.9851 62.4212L67.1541 50.6557L66.5578 49.9532L51.2144 42.7184L42.7184 51.2144L49.9497 66.5578L50.6523 67.1541L62.4177 74.9851L55.7382 91.1134L41.8788 88.3305L40.9637 88.2551L25 93.9922V106.004L40.9637 111.741L41.8788 111.666L55.7382 108.887L62.4177 125.011L50.6523 132.842L49.9497 133.439L42.7184 148.786L51.2144 157.282L66.5578 150.047L67.1541 149.348L74.9851 137.582L91.1134 144.258L88.3305 158.114L88.2551 159.033L93.9922 175H106.004L111.741 159.033L111.669 158.114L108.883 144.258L125.011 137.582L132.842 149.348L133.439 150.047L148.782 157.282L157.278 148.786L150.047 133.439L149.344 132.842L137.579 125.011L144.258 108.887L158.114 111.666L159.036 111.741L175 106.004V93.9922L159.036 88.2551L158.114 88.3305L144.258 91.1134L137.579 74.9851L149.344 67.1541L150.047 66.5578L157.278 51.2144L148.782 42.7184L133.439 49.9532L132.842 50.6557L125.011 62.4212L108.883 55.7382L111.669 41.8822L111.741 40.9637L106.004 25H93.9922ZM99.9966 63.5316C120.094 63.5316 136.458 79.8955 136.458 99.9931C136.458 120.091 120.094 136.468 99.9966 136.468C79.8989 136.468 63.5316 120.091 63.5316 99.9931C63.5316 79.8955 79.8989 63.5316 99.9966 63.5316ZM99.9966 70.5504C83.6922 70.5504 70.5538 83.6888 70.5538 99.9931C70.5538 116.297 83.6922 129.45 99.9966 129.45C116.301 129.45 129.45 116.297 129.45 99.9931C129.45 83.6888 116.301 70.5504 99.9966 70.5504ZM100 76.3629C106.269 76.3629 112.281 78.8532 116.714 83.2861C121.147 87.7189 123.637 93.7311 123.637 100C123.637 106.269 121.147 112.281 116.714 116.714C112.281 121.147 106.269 123.637 100 123.637C93.7311 123.637 87.7189 121.147 83.2861 116.714C78.8533 112.281 76.3629 106.269 76.3629 100C76.3629 93.7311 78.8533 87.7189 83.2861 83.2861C87.7189 78.8532 93.7311 76.3629 100 76.3629Z" fill="white"/>
</svg>
