<svg width="200" height="200" viewBox="0 0 200 200" fill="none" xmlns="http://www.w3.org/2000/svg">
<path d="M100 200C155.228 200 200 155.228 200 100C200 44.7715 155.228 0 100 0C44.7715 0 0 44.7715 0 100C0 155.228 44.7715 200 100 200Z" fill="#DB611C"/>
<path opacity="0.42" d="M83.8127 199.312L142.458 140.667V86.727H119.675L104.096 102.305H103.232L129.275 76.2625L133.064 59.3333L116.135 63.122L95.7555 83.5L95.1847 82.94C94.5498 82.317 93.6946 81.9699 92.8051 81.974C91.9157 81.9782 91.0638 82.3333 90.4347 82.9623L14.6362 158.761C28.4682 179.698 50.868 193.746 83.8127 199.312Z" fill="url(#paint0_linear)"/>
<path d="M80.326 117.883H57.542V140.667H80.326V117.883Z" fill="white"/>
<path d="M111.392 102.305H88.6084V140.667H111.392V102.305Z" fill="white"/>
<path d="M142.459 86.727H119.675V140.667H142.459V86.727Z" fill="white"/>
<path d="M68.9773 112.568C69.4206 112.569 69.8596 112.482 70.2692 112.312C70.6787 112.142 71.0507 111.893 71.3638 111.58L92.843 90.1L97.6363 94.8048C98.2712 95.4278 99.1263 95.775 100.016 95.7709C100.905 95.7667 101.757 95.4116 102.386 94.7828L125.091 72.0785L129.276 76.2625L133.064 59.3333L116.135 63.122L120.319 67.3058L99.979 87.6458L95.1855 82.9408C94.5506 82.3178 93.6955 81.9706 92.806 81.9748C91.9165 81.979 91.0646 82.3341 90.4355 82.963L66.5918 106.807C66.1199 107.279 65.7985 107.88 65.6683 108.535C65.5382 109.189 65.605 109.868 65.8604 110.485C66.1159 111.101 66.5484 111.628 67.1034 111.999C67.6584 112.37 68.3108 112.568 68.9783 112.568H68.9773Z" fill="white"/>
<defs>
<linearGradient id="paint0_linear" x1="108.756" y1="119.505" x2="55.3805" y2="172.88" gradientUnits="userSpaceOnUse">
<stop/>
<stop offset="1" stop-opacity="0"/>
</linearGradient>
</defs>
</svg>
