<svg width="200" height="200" viewBox="0 0 200 200" fill="none" xmlns="http://www.w3.org/2000/svg">
<path d="M100 200C155.228 200 200 155.228 200 100C200 44.7715 155.228 0 100 0C44.7715 0 0 44.7715 0 100C0 155.228 44.7715 200 100 200Z" fill="#AA0AA4"/>
<path opacity="0.42" d="M99.9478 47.1925C85.1643 47.1925 71.8103 53.28 62.2353 63.0802L2.71533 122.6C6.94822 140.775 16.1824 157.403 29.3733 170.604C42.5643 183.804 59.1858 193.05 77.3578 197.295L136.9 137.753C146.717 128.163 152.811 114.789 152.811 99.9978C152.811 70.8477 129.153 47.1902 99.9506 47.1902L99.9478 47.1925Z" fill="url(#paint0_linear)"/>
<path d="M99.9474 47.1925C70.7974 47.1925 47.1924 70.8498 47.1924 100C47.1924 129.15 70.7969 152.808 99.9474 152.808C129.15 152.808 152.807 129.15 152.807 100C152.807 70.85 129.15 47.1925 99.9474 47.1925ZM100 57.7535C123.341 57.7535 142.245 76.6585 142.245 99.9985C142.245 123.339 123.34 142.244 100 142.244C76.6593 142.244 57.755 123.339 57.755 99.9985C57.755 76.6578 76.66 57.7535 100 57.7535ZM94.7198 73.596V105.281L122.442 121.915L126.403 115.42L102.64 101.32V73.5978H94.719L94.7198 73.596Z" fill="white"/>
<defs>
<linearGradient id="paint0_linear" x1="116.33" y1="91.18" x2="51.7053" y2="155.805" gradientUnits="userSpaceOnUse">
<stop/>
<stop offset="1" stop-opacity="0"/>
</linearGradient>
</defs>
</svg>
